<svg width="252" height="400" viewBox="0 0 252 400" fill="none" xmlns="http://www.w3.org/2000/svg">
<rect width="252" height="400" rx="4" fill="white"/>
<path d="M30.244 46.252C29.3667 46.252 28.5453 45.9627 27.78 45.384C27.0147 44.8053 26.3893 43.9187 25.904 42.724C25.4373 41.5107 25.204 40.0173 25.204 38.244C25.204 36.9747 25.2787 35.808 25.428 34.744C25.5773 33.6613 25.7827 32.8027 26.044 32.168C26.324 31.72 26.7813 31.244 27.416 30.74C28.0507 30.2173 28.6853 29.7787 29.32 29.424C29.9547 29.0693 30.412 28.892 30.692 28.892C31.2333 28.9107 31.9893 28.948 32.96 29.004C33.9493 29.0413 34.92 29.0973 35.872 29.172L35.536 34.016H34.024L33.688 31.16C33.24 31.0667 32.652 30.992 31.924 30.936C31.196 30.88 30.6453 30.852 30.272 30.852C29.8987 30.852 29.6 30.908 29.376 31.02C28.928 31.2627 28.5827 31.9347 28.34 33.036C28.0973 34.1373 27.976 35.5467 27.976 37.264C27.976 39.8773 28.2933 41.688 28.928 42.696C29.5813 43.6853 30.4587 44.18 31.56 44.18H33.576L34.052 40.624L35.48 40.652L35.508 45.608C35.06 45.7387 34.1453 45.8787 32.764 46.028C31.3827 46.1773 30.5427 46.252 30.244 46.252ZM42.2015 46.252C41.4362 46.252 40.7175 46.0373 40.0455 45.608C39.3922 45.16 38.8602 44.4787 38.4495 43.564C38.0389 42.6493 37.8335 41.5107 37.8335 40.148C37.8335 39.2707 37.8895 38.4587 38.0015 37.712C38.1322 36.9467 38.3002 36.368 38.5055 35.976C38.8042 35.5467 39.4669 34.9773 40.4935 34.268C41.5389 33.5587 42.2295 33.204 42.5655 33.204C42.9389 33.204 44.5722 33.4187 47.4655 33.848V44.376L48.4175 44.768V45.804C46.9429 46.1027 46.1215 46.252 45.9535 46.252C45.8789 46.252 45.7015 46.1213 45.4215 45.86C45.1415 45.5987 45.0015 45.4213 45.0015 45.328V44.236C44.8895 44.3293 44.4229 44.6933 43.6015 45.328C42.7802 45.944 42.3135 46.252 42.2015 46.252ZM42.3695 44.18C42.5749 44.18 43.4242 43.8067 44.9175 43.06V35.36C44.4509 35.2107 43.8442 35.08 43.0975 34.968C42.3509 34.8373 41.8469 34.7907 41.5855 34.828C41.2309 34.884 40.9602 35.2853 40.7735 36.032C40.6055 36.7787 40.5215 38.0853 40.5215 39.952C40.5215 40.904 40.6242 41.6973 40.8295 42.332C41.0535 42.9667 41.3055 43.4333 41.5855 43.732C41.8842 44.0307 42.1455 44.18 42.3695 44.18ZM53.3243 46.252C53.119 46.252 52.8483 46.1213 52.5123 45.86C52.1763 45.58 51.8776 45.2627 51.6163 44.908C51.3736 44.5533 51.2523 44.2733 51.2523 44.068V34.94H49.4603V34.1L51.2523 33.204L52.8203 31.3C52.9883 31.3 53.315 31.4307 53.8003 31.692V33.456H56.5163V35.08H53.8003V42.836C53.8003 43.4147 53.847 43.8067 53.9403 44.012C54.0336 44.2173 54.211 44.32 54.4723 44.32L56.7683 44.376V45.72C56.227 45.832 55.5643 45.944 54.7803 46.056C53.9963 46.1867 53.511 46.252 53.3243 46.252ZM62.6 46.252C61.8346 46.252 61.116 46.0373 60.444 45.608C59.7906 45.16 59.2586 44.4787 58.848 43.564C58.4373 42.6493 58.232 41.5107 58.232 40.148C58.232 39.2707 58.288 38.4587 58.4 37.712C58.5306 36.9467 58.6986 36.368 58.904 35.976C59.2026 35.5467 59.8653 34.9773 60.892 34.268C61.9373 33.5587 62.628 33.204 62.964 33.204C63.3373 33.204 64.9706 33.4187 67.864 33.848V44.376L68.816 44.768V45.804C67.3413 46.1027 66.52 46.252 66.352 46.252C66.2773 46.252 66.1 46.1213 65.82 45.86C65.54 45.5987 65.4 45.4213 65.4 45.328V44.236C65.288 44.3293 64.8213 44.6933 64 45.328C63.1786 45.944 62.712 46.252 62.6 46.252ZM62.768 44.18C62.9733 44.18 63.8226 43.8067 65.316 43.06V35.36C64.8493 35.2107 64.2426 35.08 63.496 34.968C62.7493 34.8373 62.2453 34.7907 61.984 34.828C61.6293 34.884 61.3586 35.2853 61.172 36.032C61.004 36.7787 60.92 38.0853 60.92 39.952C60.92 40.904 61.0226 41.6973 61.228 42.332C61.452 42.9667 61.704 43.4333 61.984 43.732C62.2826 44.0307 62.544 44.18 62.768 44.18ZM72.4627 51.068C72.3694 51.068 72.1827 50.9373 71.9027 50.676C71.6227 50.4147 71.4827 50.2373 71.4827 50.144L71.6227 45.636V35.08L70.6707 34.688V33.652C71.0814 33.5587 71.5667 33.4653 72.1267 33.372C72.6867 33.26 73.0227 33.204 73.1347 33.204C73.2094 33.204 73.3867 33.3347 73.6667 33.596C73.9467 33.8573 74.0867 34.0347 74.0867 34.128V35.22L74.9267 34.576C76.1401 33.6613 76.7934 33.204 76.8867 33.204C77.6334 33.204 78.3334 33.428 78.9867 33.876C79.6587 34.3053 80.2001 34.968 80.6107 35.864C81.0401 36.7413 81.2547 37.8333 81.2547 39.14C81.2547 40.092 81.1894 40.9507 81.0587 41.716C80.9467 42.4813 80.7881 43.0693 80.5827 43.48C80.2841 43.9093 79.6121 44.4787 78.5667 45.188C77.5401 45.8973 76.8587 46.252 76.5227 46.252C76.2241 46.252 75.3934 46.1493 74.0307 45.944V49.052L75.1507 49.5V50.62C74.7214 50.7133 74.2361 50.8067 73.6947 50.9C73.1534 50.9933 72.7427 51.0493 72.4627 51.068ZM77.5027 44.628C77.8574 44.572 78.1187 44.1707 78.2867 43.424C78.4734 42.6773 78.5667 41.3707 78.5667 39.504C78.5667 38.552 78.4547 37.7587 78.2307 37.124C78.0254 36.4893 77.7734 36.0227 77.4747 35.724C77.1947 35.4253 76.9427 35.276 76.7187 35.276C76.5694 35.276 75.7201 35.6493 74.1707 36.396V44.096C74.6374 44.2453 75.2441 44.3853 75.9907 44.516C76.7374 44.628 77.2414 44.6653 77.5027 44.628ZM88.2042 46.252C86.8602 46.252 85.8522 45.9067 85.1802 45.216C84.5082 44.5067 84.1722 43.2747 84.1722 41.52V35.108L83.2202 34.688V33.652C84.7509 33.372 85.5909 33.232 85.7402 33.232C85.8335 33.232 86.0202 33.3627 86.3002 33.624C86.5802 33.8853 86.7202 34.0533 86.7202 34.128V41.52C86.7202 42.6773 86.8882 43.4147 87.2242 43.732C87.5602 44.0307 87.9335 44.18 88.3442 44.18C88.5309 44.18 89.3802 43.8253 90.8922 43.116V35.108L89.9402 34.688V33.652C91.4709 33.372 92.3202 33.232 92.4882 33.232C92.5815 33.232 92.7589 33.3627 93.0202 33.624C93.3002 33.8853 93.4402 34.0533 93.4402 34.128V44.348L94.3922 44.768V45.804C92.8802 46.1027 92.0402 46.252 91.8722 46.252C91.7789 46.252 91.6015 46.1213 91.3402 45.86C91.0975 45.5987 90.9762 45.4213 90.9762 45.328V44.264C90.4535 44.6747 89.8749 45.1133 89.2402 45.58C88.6055 46.028 88.2602 46.252 88.2042 46.252ZM98.2238 46.252C98.1305 46.252 97.9532 46.1213 97.6918 45.86C97.4305 45.5987 97.2998 45.4213 97.2998 45.328V29.788L96.2918 29.396V28.36C97.8598 28.0613 98.7278 27.912 98.8958 27.912C98.9892 27.912 99.1665 28.0427 99.4278 28.304C99.6892 28.5653 99.8198 28.7427 99.8198 28.836V44.348L100.772 44.768V45.804C99.2412 46.1027 98.3918 46.252 98.2238 46.252ZM105.742 46.252C105.537 46.252 105.266 46.1213 104.93 45.86C104.594 45.58 104.296 45.2627 104.034 44.908C103.792 44.5533 103.67 44.2733 103.67 44.068V34.94H101.878V34.1L103.67 33.204L105.238 31.3C105.406 31.3 105.733 31.4307 106.218 31.692V33.456H108.934V35.08H106.218V42.836C106.218 43.4147 106.265 43.8067 106.358 44.012C106.452 44.2173 106.629 44.32 106.89 44.32L109.186 44.376V45.72C108.645 45.832 107.982 45.944 107.198 46.056C106.414 46.1867 105.929 46.252 105.742 46.252Z" fill="black"/>
<path d="M33.3068 62.3466C33.1406 63.3314 32.8221 64.1824 32.3512 64.8995C31.8803 65.6135 31.3048 66.1644 30.6246 66.5522C29.9445 66.9369 29.2074 67.1293 28.4134 67.1293C27.5947 67.1293 26.8976 66.9292 26.3221 66.5291C25.7496 66.1259 25.3403 65.5566 25.0941 64.821C24.851 64.0824 24.8125 63.2083 24.9787 62.1989C25.1449 61.214 25.4634 60.3646 25.9343 59.6506C26.4052 58.9335 26.9822 58.3826 27.6655 57.9979C28.3487 57.6101 29.0904 57.4162 29.8906 57.4162C30.7031 57.4162 31.3941 57.6178 31.9634 58.021C32.5359 58.421 32.9437 58.9904 33.1868 59.729C33.433 60.4646 33.473 61.3371 33.3068 62.3466ZM32.2173 62.1989C32.3527 61.3925 32.3327 60.7139 32.1573 60.163C31.9819 59.6121 31.6911 59.1951 31.2848 58.9119C30.8786 58.6288 30.3954 58.4872 29.8352 58.4872C29.2505 58.4872 28.6965 58.6365 28.1733 58.935C27.6501 59.2305 27.2023 59.666 26.8299 60.2415C26.4575 60.8139 26.2036 61.5156 26.0682 62.3466C25.9328 63.1529 25.9528 63.8316 26.1282 64.3825C26.3036 64.9334 26.5945 65.3504 27.0007 65.6335C27.407 65.9167 27.8902 66.0582 28.4503 66.0582C29.035 66.0582 29.589 65.9105 30.1122 65.6151C30.6354 65.3165 31.0832 64.881 31.4556 64.3086C31.828 63.7331 32.0819 63.0298 32.2173 62.1989ZM36.0998 62.7344L35.3981 67H34.3086L35.4904 59.9091H36.543L36.3583 61.017H36.4506C36.6722 60.657 36.9723 60.3677 37.3509 60.1491C37.7294 59.9276 38.1864 59.8168 38.7219 59.8168C39.1959 59.8168 39.596 59.9152 39.9222 60.1122C40.2515 60.3061 40.4839 60.6016 40.6193 60.9986C40.7578 61.3925 40.7778 61.8911 40.6793 62.4943L39.9222 67H38.8327L39.5714 62.5682C39.6637 62.0142 39.5914 61.5803 39.3544 61.2663C39.1205 60.9524 38.7496 60.7955 38.2418 60.7955C37.891 60.7955 37.5663 60.8709 37.2678 61.0217C36.9723 61.1725 36.7215 61.3925 36.5153 61.6818C36.3121 61.9711 36.1736 62.322 36.0998 62.7344ZM44.7753 67.1477C44.1075 67.1477 43.5596 66.9908 43.1318 66.6768C42.7071 66.3629 42.4117 65.9305 42.2455 65.3796C42.0793 64.8287 42.0547 64.1993 42.1716 63.4915C42.2886 62.7713 42.5255 62.1358 42.8825 61.5849C43.2396 61.0309 43.6843 60.5985 44.2167 60.2876C44.7491 59.9737 45.3354 59.8168 45.9756 59.8168C46.4742 59.8168 46.9081 59.9091 47.2774 60.0937C47.6467 60.2784 47.9314 60.5369 48.1315 60.8693C48.3315 61.2017 48.4254 61.5895 48.4131 62.0327H47.3236C47.2928 61.7095 47.1543 61.4233 46.9081 61.174C46.665 60.9216 46.3049 60.7955 45.8279 60.7955C45.4031 60.7955 45.0123 60.9062 44.6553 61.1278C44.2983 61.3464 43.9982 61.6557 43.7551 62.0558C43.5119 62.4528 43.3473 62.919 43.2611 63.4545C43.1688 64.0024 43.1765 64.4794 43.2842 64.8857C43.3919 65.2919 43.5873 65.6074 43.8705 65.832C44.1536 66.0567 44.5106 66.169 44.9415 66.169C45.2246 66.169 45.4893 66.1198 45.7355 66.0213C45.9817 65.9228 46.2003 65.7812 46.3911 65.5966C46.5819 65.4119 46.7327 65.1903 46.8435 64.9318H47.933C47.7976 65.3504 47.5806 65.7274 47.282 66.0629C46.9835 66.3952 46.6219 66.6599 46.1972 66.8569C45.7725 67.0508 45.2985 67.1477 44.7753 67.1477ZM52.1293 67.1477C51.4492 67.1477 50.8875 66.9969 50.4443 66.6953C50.0012 66.3906 49.6918 65.9659 49.5164 65.4212C49.341 64.8733 49.3133 64.2363 49.4333 63.5099C49.5534 62.7836 49.7919 62.1435 50.1489 61.5895C50.5059 61.0324 50.9506 60.5985 51.483 60.2876C52.0155 59.9737 52.6002 59.8168 53.2373 59.8168C53.6066 59.8168 53.9621 59.8783 54.3037 60.0014C54.6453 60.1245 54.9408 60.3246 55.1901 60.6016C55.4394 60.8755 55.6133 61.2386 55.7117 61.6911C55.8102 62.1435 55.8041 62.7005 55.6933 63.3622L55.6194 63.8239H50.1535L50.3012 62.8821H54.6592C54.73 62.482 54.7115 62.125 54.6038 61.8111C54.4991 61.4972 54.316 61.2494 54.0544 61.0678C53.7959 60.8862 53.4681 60.7955 53.0711 60.7955C52.6618 60.7955 52.2802 60.9062 51.9262 61.1278C51.5723 61.3464 51.2768 61.6233 51.0399 61.9588C50.8029 62.2912 50.6552 62.6297 50.5967 62.9744L50.4674 63.7869C50.3751 64.3748 50.3889 64.8426 50.509 65.1903C50.6321 65.5381 50.846 65.7889 51.1507 65.9428C51.4553 66.0936 51.837 66.169 52.2955 66.169C52.5879 66.169 52.8572 66.129 53.1034 66.049C53.3496 65.9659 53.5697 65.8428 53.7636 65.6797C53.9575 65.5135 54.1206 65.3073 54.2529 65.0611L55.2501 65.3565C55.0808 65.7135 54.8423 66.0275 54.5345 66.2983C54.2298 66.5661 53.8728 66.7753 53.4635 66.9261C53.0573 67.0739 52.6125 67.1477 52.1293 67.1477ZM59.9797 69.6591L61.6139 59.9091H62.6665L62.4818 61.0355H62.6111C62.7095 60.9124 62.845 60.7554 63.0173 60.5646C63.1927 60.3707 63.4282 60.1984 63.7236 60.0476C64.0222 59.8937 64.4023 59.8168 64.8639 59.8168C65.461 59.8168 65.9611 59.966 66.3643 60.2646C66.7674 60.5631 67.0521 60.9863 67.2183 61.5341C67.3845 62.0819 67.406 62.7282 67.2829 63.473C67.1598 64.224 66.9244 64.8749 66.5766 65.4258C66.2288 65.9736 65.8041 66.3983 65.3025 66.6999C64.8008 66.9985 64.2545 67.1477 63.6636 67.1477C63.2081 67.1477 62.8557 67.0723 62.6064 66.9215C62.3572 66.7676 62.1756 66.5937 62.0617 66.3999C61.9478 66.2029 61.8601 66.0398 61.7986 65.9105H61.7062L61.0784 69.6591H59.9797ZM62.094 63.4545C62.0078 63.9901 62.0078 64.4625 62.094 64.8718C62.1833 65.2781 62.3602 65.5966 62.6249 65.8274C62.8927 66.0552 63.2451 66.169 63.6821 66.169C64.1376 66.169 64.5361 66.049 64.8777 65.8089C65.2224 65.5658 65.5056 65.2396 65.7272 64.8303C65.9519 64.4178 66.1073 63.9593 66.1934 63.4545C66.2735 62.956 66.2704 62.5066 66.1842 62.1065C66.098 61.7034 65.9226 61.3848 65.6579 61.1509C65.3933 60.9139 65.0301 60.7955 64.5684 60.7955C64.1253 60.7955 63.7329 60.9078 63.3912 61.1325C63.0527 61.354 62.7726 61.6649 62.551 62.065C62.3325 62.462 62.1802 62.9252 62.094 63.4545ZM71.312 67.1477C70.6318 67.1477 70.0701 66.9969 69.627 66.6953C69.1838 66.3906 68.8745 65.9659 68.699 65.4212C68.5236 64.8733 68.4959 64.2363 68.6159 63.5099C68.736 62.7836 68.9745 62.1435 69.3315 61.5895C69.6885 61.0324 70.1332 60.5985 70.6657 60.2876C71.1981 59.9737 71.7828 59.8168 72.4199 59.8168C72.7892 59.8168 73.1447 59.8783 73.4863 60.0014C73.8279 60.1245 74.1234 60.3246 74.3727 60.6016C74.622 60.8755 74.7959 61.2386 74.8944 61.6911C74.9928 62.1435 74.9867 62.7005 74.8759 63.3622L74.802 63.8239H69.3361L69.4838 62.8821H73.8418C73.9126 62.482 73.8941 62.125 73.7864 61.8111C73.6818 61.4972 73.4986 61.2494 73.237 61.0678C72.9785 60.8862 72.6507 60.7955 72.2537 60.7955C71.8444 60.7955 71.4628 60.9062 71.1088 61.1278C70.7549 61.3464 70.4595 61.6233 70.2225 61.9588C69.9855 62.2912 69.8378 62.6297 69.7793 62.9744L69.65 63.7869C69.5577 64.3748 69.5716 64.8426 69.6916 65.1903C69.8147 65.5381 70.0286 65.7889 70.3333 65.9428C70.638 66.0936 71.0196 66.169 71.4782 66.169C71.7705 66.169 72.0398 66.129 72.286 66.049C72.5323 65.9659 72.7523 65.8428 72.9462 65.6797C73.1401 65.5135 73.3032 65.3073 73.4355 65.0611L74.4327 65.3565C74.2634 65.7135 74.0249 66.0275 73.7171 66.2983C73.4125 66.5661 73.0555 66.7753 72.6461 66.9261C72.2399 67.0739 71.7952 67.1477 71.312 67.1477ZM75.9492 67L77.131 59.9091H78.1836L77.9989 60.9801H78.0728C78.2575 60.6293 78.5391 60.3446 78.9176 60.1261C79.2962 59.9076 79.6978 59.7983 80.1225 59.7983C80.2056 59.7983 80.3056 59.7998 80.4226 59.8029C80.5395 59.8029 80.6303 59.8075 80.695 59.8168L80.5103 60.9247C80.4734 60.9155 80.3903 60.9016 80.261 60.8832C80.1317 60.8616 79.9932 60.8509 79.8455 60.8509C79.5008 60.8509 79.1823 60.9232 78.8899 61.0678C78.5975 61.2094 78.3529 61.4064 78.1559 61.6587C77.9589 61.908 77.8327 62.1927 77.7773 62.5128L77.0387 67H75.9492ZM88.7334 59.9091L88.5857 60.8324H84.911L85.0587 59.9091H88.7334ZM86.4067 58.2102H87.4962L86.3698 64.9687C86.3205 65.2765 86.3282 65.5073 86.3928 65.6612C86.4605 65.812 86.5621 65.9136 86.6975 65.9659C86.836 66.0152 86.9853 66.0398 87.1453 66.0398C87.2654 66.0398 87.3638 66.0336 87.4408 66.0213C87.5177 66.0059 87.5793 65.9936 87.6254 65.9844L87.6993 66.9631C87.6162 66.9908 87.5039 67.0185 87.3623 67.0462C87.2238 67.0769 87.053 67.0923 86.8499 67.0923C86.5421 67.0923 86.2528 67.0262 85.982 66.8938C85.7111 66.7615 85.5034 66.5599 85.3587 66.2891C85.2141 66.0182 85.1756 65.6766 85.2433 65.2642L86.4067 58.2102ZM94.1393 64.1009L94.841 59.9091H95.9305L94.7487 67H93.6592L93.8623 65.7997H93.7884C93.5668 66.1598 93.2575 66.466 92.8605 66.7184C92.4635 66.9677 91.9972 67.0923 91.4617 67.0923C91.0186 67.0923 90.64 66.9954 90.3261 66.8015C90.0152 66.6045 89.7936 66.3091 89.6613 65.9151C89.532 65.5181 89.5167 65.018 89.6151 64.4148L90.3722 59.9091H91.4617L90.7231 64.3409C90.64 64.858 90.7185 65.2704 90.9585 65.5781C91.1986 65.8859 91.5448 66.0398 91.9972 66.0398C92.2681 66.0398 92.5543 65.9705 92.8559 65.832C93.1606 65.6935 93.4314 65.4812 93.6684 65.195C93.9085 64.9087 94.0654 64.544 94.1393 64.1009ZM96.7441 67L97.926 59.9091H98.9785L98.7939 60.9801H98.8677C99.0524 60.6293 99.334 60.3446 99.7125 60.1261C100.091 59.9076 100.493 59.7983 100.917 59.7983C101.001 59.7983 101.101 59.7998 101.218 59.8029C101.334 59.8029 101.425 59.8075 101.49 59.8168L101.305 60.9247C101.268 60.9155 101.185 60.9016 101.056 60.8832C100.927 60.8616 100.788 60.8509 100.64 60.8509C100.296 60.8509 99.9772 60.9232 99.6848 61.0678C99.3925 61.2094 99.1478 61.4064 98.9508 61.6587C98.7538 61.908 98.6277 62.1927 98.5723 62.5128L97.8336 67H96.7441ZM103.398 62.7344L102.696 67H101.606L102.788 59.9091H103.841L103.656 61.017H103.748C103.97 60.657 104.27 60.3677 104.649 60.1491C105.027 59.9276 105.484 59.8168 106.02 59.8168C106.494 59.8168 106.894 59.9152 107.22 60.1122C107.549 60.3061 107.782 60.6016 107.917 60.9986C108.056 61.3925 108.076 61.8911 107.977 62.4943L107.22 67H106.131L106.869 62.5682C106.962 62.0142 106.889 61.5803 106.652 61.2663C106.418 60.9524 106.047 60.7955 105.54 60.7955C105.189 60.7955 104.864 60.8709 104.566 61.0217C104.27 61.1725 104.019 61.3925 103.813 61.6818C103.61 61.9711 103.471 62.322 103.398 62.7344ZM113.135 69.6591C112.95 69.6591 112.787 69.6437 112.646 69.6129C112.507 69.5852 112.412 69.5575 112.359 69.5298L112.803 68.5696C113.055 68.6373 113.28 68.6573 113.477 68.6296C113.677 68.605 113.866 68.508 114.044 68.3388C114.226 68.1726 114.415 67.911 114.612 67.554L114.917 67L113.495 59.9091H114.631L115.646 65.5781H115.72L118.619 59.9091H119.847L115.499 68.0249C115.295 68.4034 115.072 68.7127 114.829 68.9528C114.586 69.1928 114.323 69.3698 114.04 69.4837C113.757 69.6006 113.455 69.6591 113.135 69.6591ZM122.776 67.1477C122.124 67.1477 121.578 66.9923 121.138 66.6815C120.697 66.3706 120.387 65.9351 120.205 65.375C120.027 64.8149 119.997 64.1624 120.117 63.4176C120.234 62.6913 120.467 62.0588 120.814 61.5202C121.165 60.9786 121.601 60.56 122.121 60.2646C122.644 59.966 123.22 59.8168 123.847 59.8168C124.5 59.8168 125.045 59.9737 125.482 60.2876C125.922 60.5985 126.233 61.0355 126.414 61.5987C126.596 62.1589 126.627 62.8144 126.507 63.5653C126.39 64.2855 126.154 64.9149 125.8 65.4535C125.449 65.989 125.014 66.406 124.494 66.7045C123.977 67 123.404 67.1477 122.776 67.1477ZM122.795 66.169C123.293 66.169 123.726 66.0413 124.092 65.7859C124.461 65.5304 124.76 65.1934 124.988 64.7749C125.219 64.3563 125.374 63.9039 125.454 63.4176C125.528 62.956 125.525 62.5266 125.445 62.1296C125.365 61.7295 125.194 61.4079 124.932 61.1648C124.671 60.9186 124.303 60.7955 123.829 60.7955C123.33 60.7955 122.895 60.9247 122.523 61.1832C122.153 61.4418 121.855 61.7818 121.627 62.2035C121.399 62.6251 121.247 63.0791 121.17 63.5653C121.096 64.027 121.098 64.4563 121.175 64.8533C121.255 65.2473 121.425 65.5658 121.687 65.8089C121.952 66.049 122.321 66.169 122.795 66.169ZM132.555 64.1009L133.257 59.9091H134.346L133.165 67H132.075L132.278 65.7997H132.204C131.983 66.1598 131.674 66.466 131.277 66.7184C130.88 66.9677 130.413 67.0923 129.878 67.0923C129.435 67.0923 129.056 66.9954 128.742 66.8015C128.431 66.6045 128.21 66.3091 128.077 65.9151C127.948 65.5181 127.933 65.018 128.031 64.4148L128.788 59.9091H129.878L129.139 64.3409C129.056 64.858 129.134 65.2704 129.375 65.5781C129.615 65.8859 129.961 66.0398 130.413 66.0398C130.684 66.0398 130.97 65.9705 131.272 65.832C131.577 65.6935 131.847 65.4812 132.084 65.195C132.324 64.9087 132.481 64.544 132.555 64.1009ZM141.679 67.1477C141.011 67.1477 140.463 66.9908 140.035 66.6768C139.61 66.3629 139.315 65.9305 139.149 65.3796C138.983 64.8287 138.958 64.1993 139.075 63.4915C139.192 62.7713 139.429 62.1358 139.786 61.5849C140.143 61.0309 140.588 60.5985 141.12 60.2876C141.652 59.9737 142.239 59.8168 142.879 59.8168C143.377 59.8168 143.811 59.9091 144.181 60.0937C144.55 60.2784 144.835 60.5369 145.035 60.8693C145.235 61.2017 145.329 61.5895 145.316 62.0327H144.227C144.196 61.7095 144.058 61.4233 143.811 61.174C143.568 60.9216 143.208 60.7955 142.731 60.7955C142.306 60.7955 141.916 60.9062 141.559 61.1278C141.202 61.3464 140.902 61.6557 140.658 62.0558C140.415 62.4528 140.251 62.919 140.164 63.4545C140.072 64.0024 140.08 64.4794 140.187 64.8857C140.295 65.2919 140.491 65.6074 140.774 65.832C141.057 66.0567 141.414 66.169 141.845 66.169C142.128 66.169 142.393 66.1198 142.639 66.0213C142.885 65.9228 143.104 65.7812 143.294 65.5966C143.485 65.4119 143.636 65.1903 143.747 64.9318H144.836C144.701 65.3504 144.484 65.7274 144.185 66.0629C143.887 66.3952 143.525 66.6599 143.1 66.8569C142.676 67.0508 142.202 67.1477 141.679 67.1477ZM148.146 67.1662C147.697 67.1662 147.303 67.0816 146.964 66.9123C146.626 66.7399 146.375 66.4922 146.212 66.169C146.049 65.8428 146.004 65.4489 146.078 64.9872C146.149 64.581 146.286 64.2517 146.489 63.9993C146.692 63.7438 146.938 63.5438 147.228 63.3991C147.52 63.2514 147.834 63.1422 148.169 63.0714C148.508 62.9975 148.845 62.9406 149.18 62.9006C149.617 62.8452 149.973 62.8021 150.247 62.7713C150.521 62.7405 150.727 62.6897 150.865 62.619C151.004 62.5482 151.089 62.4266 151.119 62.2543V62.2173C151.193 61.7649 151.133 61.4125 150.939 61.1602C150.745 60.9047 150.399 60.777 149.901 60.777C149.384 60.777 148.951 60.8909 148.603 61.1186C148.256 61.3464 147.999 61.5895 147.832 61.848L146.872 61.4787C147.125 61.0478 147.426 60.7124 147.777 60.4723C148.128 60.2292 148.496 60.0599 148.88 59.9645C149.265 59.866 149.636 59.8168 149.993 59.8168C150.221 59.8168 150.478 59.8445 150.764 59.8999C151.05 59.9522 151.318 60.0614 151.567 60.2276C151.819 60.3938 152.009 60.6446 152.135 60.9801C152.264 61.3156 152.283 61.7649 152.19 62.3281L151.415 67H150.325L150.491 66.0398H150.436C150.338 66.1937 150.187 66.3583 149.984 66.5337C149.784 66.7092 149.53 66.8584 149.222 66.9815C148.917 67.1046 148.559 67.1662 148.146 67.1662ZM148.46 66.1875C148.891 66.1875 149.268 66.1029 149.591 65.9336C149.917 65.7643 150.179 65.5458 150.376 65.2781C150.576 65.0103 150.701 64.7287 150.75 64.4332L150.916 63.4361C150.861 63.4915 150.752 63.5423 150.588 63.5884C150.425 63.6315 150.241 63.67 150.034 63.7038C149.831 63.7346 149.633 63.7623 149.439 63.7869C149.248 63.8085 149.094 63.8269 148.977 63.8423C148.688 63.8793 148.413 63.9393 148.151 64.0224C147.892 64.1024 147.674 64.224 147.495 64.3871C147.32 64.5471 147.211 64.7656 147.168 65.0426C147.103 65.4212 147.194 65.7074 147.44 65.9013C147.686 66.0921 148.026 66.1875 148.46 66.1875ZM155.195 62.7344L154.493 67H153.403L154.585 59.9091H155.638L155.453 61.017H155.545C155.767 60.657 156.067 60.3677 156.446 60.1491C156.824 59.9276 157.281 59.8168 157.817 59.8168C158.291 59.8168 158.691 59.9152 159.017 60.1122C159.346 60.3061 159.579 60.6016 159.714 60.9986C159.853 61.3925 159.873 61.8911 159.774 62.4943L159.017 67H157.927L158.666 62.5682C158.758 62.0142 158.686 61.5803 158.449 61.2663C158.215 60.9524 157.844 60.7955 157.337 60.7955C156.986 60.7955 156.661 60.8709 156.362 61.0217C156.067 61.1725 155.816 61.3925 155.61 61.6818C155.407 61.9711 155.268 62.322 155.195 62.7344ZM170.61 61.4972L169.576 61.7741C169.539 61.608 169.474 61.4479 169.382 61.294C169.293 61.1371 169.154 61.0094 168.967 60.9109C168.782 60.8093 168.53 60.7585 168.21 60.7585C167.776 60.7585 167.399 60.8585 167.078 61.0586C166.758 61.2556 166.575 61.5064 166.529 61.8111C166.483 62.0788 166.544 62.2927 166.714 62.4528C166.883 62.6128 167.166 62.7436 167.563 62.8452L168.579 63.1037C169.188 63.2607 169.622 63.4961 169.881 63.81C170.142 64.1209 170.232 64.5256 170.148 65.0241C170.081 65.4304 169.904 65.7936 169.618 66.1136C169.331 66.4337 168.965 66.6861 168.519 66.8707C168.073 67.0554 167.576 67.1477 167.028 67.1477C166.298 67.1477 165.723 66.9908 165.301 66.6768C164.879 66.3598 164.655 65.9013 164.627 65.3011L165.717 65.0426C165.744 65.4212 165.88 65.7074 166.123 65.9013C166.369 66.0921 166.714 66.1875 167.157 66.1875C167.665 66.1875 168.088 66.0798 168.426 65.8643C168.765 65.6458 168.957 65.3842 169.004 65.0795C169.05 64.8303 169 64.6225 168.856 64.4563C168.714 64.2901 168.468 64.1655 168.117 64.0824L166.991 63.8054C166.363 63.6484 165.923 63.4084 165.67 63.0852C165.421 62.7621 165.338 62.3558 165.421 61.8665C165.489 61.4664 165.661 61.1125 165.938 60.8047C166.218 60.4969 166.569 60.2553 166.991 60.0799C167.415 59.9045 167.877 59.8168 168.376 59.8168C169.077 59.8168 169.602 59.9706 169.95 60.2784C170.298 60.5831 170.518 60.9893 170.61 61.4972ZM174.411 67.1477C173.73 67.1477 173.169 66.9969 172.726 66.6953C172.282 66.3906 171.973 65.9659 171.798 65.4212C171.622 64.8733 171.595 64.2363 171.715 63.5099C171.835 62.7836 172.073 62.1435 172.43 61.5895C172.787 61.0324 173.232 60.5985 173.764 60.2876C174.297 59.9737 174.881 59.8168 175.519 59.8168C175.888 59.8168 176.243 59.8783 176.585 60.0014C176.927 60.1245 177.222 60.3246 177.471 60.6016C177.721 60.8755 177.894 61.2386 177.993 61.6911C178.091 62.1435 178.085 62.7005 177.975 63.3622L177.901 63.8239H172.435L172.582 62.8821H176.94C177.011 62.482 176.993 62.125 176.885 61.8111C176.78 61.4972 176.597 61.2494 176.336 61.0678C176.077 60.8862 175.749 60.7955 175.352 60.7955C174.943 60.7955 174.561 60.9062 174.207 61.1278C173.854 61.3464 173.558 61.6233 173.321 61.9588C173.084 62.2912 172.936 62.6297 172.878 62.9744L172.749 63.7869C172.656 64.3748 172.67 64.8426 172.79 65.1903C172.913 65.5381 173.127 65.7889 173.432 65.9428C173.737 66.0936 174.118 66.169 174.577 66.169C174.869 66.169 175.138 66.129 175.385 66.049C175.631 65.9659 175.851 65.8428 176.045 65.6797C176.239 65.5135 176.402 65.3073 176.534 65.0611L177.531 65.3565C177.362 65.7135 177.124 66.0275 176.816 66.2983C176.511 66.5661 176.154 66.7753 175.745 66.9261C175.339 67.0739 174.894 67.1477 174.411 67.1477ZM180.839 62.7344L180.137 67H179.048L180.23 59.9091H181.282L181.098 61.017H181.19C181.411 60.657 181.712 60.3677 182.09 60.1491C182.469 59.9276 182.926 59.8168 183.461 59.8168C183.935 59.8168 184.335 59.9152 184.661 60.1122C184.991 60.3061 185.223 60.6016 185.359 60.9986C185.497 61.3925 185.517 61.8911 185.419 62.4943L184.661 67H183.572L184.311 62.5682C184.403 62.0142 184.331 61.5803 184.094 61.2663C183.86 60.9524 183.489 60.7955 182.981 60.7955C182.63 60.7955 182.306 60.8709 182.007 61.0217C181.712 61.1725 181.461 61.3925 181.255 61.6818C181.051 61.9711 180.913 62.322 180.839 62.7344ZM190.918 59.9091L190.77 60.8324H187.096L187.243 59.9091H190.918ZM188.591 58.2102H189.681L188.554 64.9687C188.505 65.2765 188.513 65.5073 188.577 65.6612C188.645 65.812 188.747 65.9136 188.882 65.9659C189.021 66.0152 189.17 66.0398 189.33 66.0398C189.45 66.0398 189.548 66.0336 189.625 66.0213C189.702 66.0059 189.764 65.9936 189.81 65.9844L189.884 66.9631C189.801 66.9908 189.688 67.0185 189.547 67.0462C189.408 67.0769 189.238 67.0923 189.034 67.0923C188.727 67.0923 188.437 67.0262 188.167 66.8938C187.896 66.7615 187.688 66.5599 187.543 66.2891C187.399 66.0182 187.36 65.6766 187.428 65.2642L188.591 58.2102ZM199.906 57.5455L198.337 67H197.192L198.558 58.7457H198.503L195.936 60.2784L196.139 59.1151L198.761 57.5455H199.906ZM26.1974 82.7344L25.4957 87H24.4062L25.5881 79.9091H26.6406L26.456 81.017H26.5483C26.7699 80.657 27.07 80.3677 27.4485 80.1491C27.8271 79.9276 28.2841 79.8168 28.8196 79.8168C29.2936 79.8168 29.6937 79.9152 30.0199 80.1122C30.3492 80.3061 30.5816 80.6016 30.717 80.9986C30.8555 81.3925 30.8755 81.8911 30.777 82.4943L30.0199 87H28.9304L29.669 82.5682C29.7614 82.0142 29.689 81.5803 29.4521 81.2663C29.2182 80.9524 28.8473 80.7955 28.3395 80.7955C27.9886 80.7955 27.6639 80.8709 27.3654 81.0217C27.07 81.1725 26.8191 81.3925 26.6129 81.6818C26.4098 81.9711 26.2713 82.322 26.1974 82.7344ZM34.9376 87.1477C34.2851 87.1477 33.7388 86.9923 33.2987 86.6815C32.8586 86.3706 32.5478 85.9351 32.3662 85.375C32.1877 84.8149 32.1585 84.1624 32.2785 83.4176C32.3954 82.6913 32.6278 82.0588 32.9756 81.5202C33.3264 80.9786 33.7619 80.56 34.282 80.2646C34.8052 79.966 35.3808 79.8168 36.0086 79.8168C36.6611 79.8168 37.2058 79.9737 37.6428 80.2876C38.0829 80.5985 38.3938 81.0355 38.5754 81.5987C38.757 82.1589 38.7877 82.8144 38.6677 83.5653C38.5508 84.2855 38.3153 84.9149 37.9614 85.4535C37.6105 85.989 37.175 86.406 36.6549 86.7045C36.1379 87 35.5654 87.1477 34.9376 87.1477ZM34.9561 86.169C35.4546 86.169 35.887 86.0413 36.2533 85.7859C36.6226 85.5304 36.9211 85.1934 37.1489 84.7749C37.3797 84.3563 37.5351 83.9039 37.6151 83.4176C37.689 82.956 37.6859 82.5266 37.6059 82.1296C37.5259 81.7295 37.3551 81.4079 37.0935 81.1648C36.8319 80.9186 36.4641 80.7955 35.9901 80.7955C35.4916 80.7955 35.0561 80.9247 34.6837 81.1832C34.3144 81.4418 34.0158 81.7818 33.7881 82.2035C33.5603 82.6251 33.408 83.0791 33.3311 83.5653C33.2572 84.027 33.2587 84.4563 33.3357 84.8533C33.4157 85.2473 33.5865 85.5658 33.8481 85.8089C34.1128 86.049 34.4821 86.169 34.9561 86.169ZM41.5588 82.7344L40.8571 87H39.7676L40.9494 79.9091H42.002L41.8173 81.017H41.9096C42.1312 80.657 42.4313 80.3677 42.8098 80.1491C43.1884 79.9276 43.6454 79.8168 44.1809 79.8168C44.6549 79.8168 45.055 79.9152 45.3812 80.1122C45.7105 80.3061 45.9429 80.6016 46.0783 80.9986C46.2168 81.3925 46.2368 81.8911 46.1383 82.4943L45.3812 87H44.2917L45.0304 82.5682C45.1227 82.0142 45.0504 81.5803 44.8134 81.2663C44.5795 80.9524 44.2086 80.7955 43.7008 80.7955C43.35 80.7955 43.0253 80.8709 42.7267 81.0217C42.4313 81.1725 42.1805 81.3925 41.9743 81.6818C41.7711 81.9711 41.6326 82.322 41.5588 82.7344ZM52.1917 82.4389L52.0255 83.4545H47.8891L48.0553 82.4389H52.1917ZM55.4197 87.1662C54.9704 87.1662 54.5765 87.0816 54.2379 86.9123C53.8994 86.7399 53.6486 86.4922 53.4854 86.169C53.3223 85.8428 53.2777 85.4489 53.3516 84.9872C53.4223 84.581 53.5593 84.2517 53.7624 83.9993C53.9656 83.7438 54.2118 83.5438 54.5011 83.3991C54.7934 83.2514 55.1074 83.1422 55.4428 83.0714C55.7814 82.9975 56.1184 82.9406 56.4538 82.9006C56.8909 82.8452 57.2463 82.8021 57.5202 82.7713C57.7942 82.7405 58.0004 82.6897 58.1388 82.619C58.2773 82.5482 58.362 82.4266 58.3928 82.2543V82.2173C58.4666 81.7649 58.4066 81.4125 58.2127 81.1602C58.0188 80.9047 57.6726 80.777 57.174 80.777C56.657 80.777 56.2245 80.8909 55.8768 81.1186C55.529 81.3464 55.272 81.5895 55.1058 81.848L54.1456 81.4787C54.398 81.0478 54.6996 80.7124 55.0504 80.4723C55.4013 80.2292 55.7691 80.0599 56.1538 79.9645C56.5385 79.866 56.9093 79.8168 57.2663 79.8168C57.4941 79.8168 57.7511 79.8445 58.0373 79.8999C58.3235 79.9522 58.5913 80.0614 58.8406 80.2276C59.0929 80.3938 59.2822 80.6446 59.4084 80.9801C59.5376 81.3156 59.5561 81.7649 59.4638 82.3281L58.6882 87H57.5987L57.7649 86.0398H57.7095C57.611 86.1937 57.4602 86.3583 57.2571 86.5337C57.0571 86.7092 56.8031 86.8584 56.4954 86.9815C56.1907 87.1046 55.8321 87.1662 55.4197 87.1662ZM55.7337 86.1875C56.1645 86.1875 56.5415 86.1029 56.8647 85.9336C57.1909 85.7643 57.4525 85.5458 57.6495 85.2781C57.8495 85.0103 57.9742 84.7287 58.0234 84.4332L58.1896 83.4361C58.1342 83.4915 58.025 83.5423 57.8619 83.5884C57.6987 83.6315 57.5141 83.67 57.3079 83.7038C57.1048 83.7346 56.9062 83.7623 56.7124 83.7869C56.5215 83.8085 56.3677 83.8269 56.2507 83.8423C55.9614 83.8793 55.686 83.9393 55.4244 84.0224C55.1658 84.1024 54.9473 84.224 54.7688 84.3871C54.5934 84.5471 54.4841 84.7656 54.441 85.0426C54.3764 85.4212 54.4672 85.7074 54.7134 85.9013C54.9596 86.0921 55.2997 86.1875 55.7337 86.1875ZM60.6768 87L61.8586 79.9091H62.9111L62.7265 80.9801H62.8003C62.985 80.6293 63.2666 80.3446 63.6452 80.1261C64.0237 79.9075 64.4253 79.7983 64.8501 79.7983C64.9331 79.7983 65.0332 79.7998 65.1501 79.8029C65.2671 79.8029 65.3579 79.8075 65.4225 79.8168L65.2378 80.9247C65.2009 80.9155 65.1178 80.9016 64.9885 80.8832C64.8593 80.8616 64.7208 80.8509 64.5731 80.8509C64.2284 80.8509 63.9098 80.9232 63.6175 81.0678C63.3251 81.2094 63.0804 81.4064 62.8834 81.6587C62.6865 81.908 62.5603 82.1927 62.5049 82.5128L61.7662 87H60.6768ZM68.2778 87.1477C67.5976 87.1477 67.036 86.9969 66.5928 86.6953C66.1496 86.3906 65.8403 85.9659 65.6649 85.4212C65.4894 84.8733 65.4617 84.2363 65.5818 83.5099C65.7018 82.7836 65.9403 82.1435 66.2973 81.5895C66.6543 81.0324 67.099 80.5985 67.6315 80.2876C68.1639 79.9737 68.7487 79.8168 69.3857 79.8168C69.7551 79.8168 70.1105 79.8783 70.4521 80.0014C70.7938 80.1245 71.0892 80.3246 71.3385 80.6016C71.5878 80.8755 71.7617 81.2386 71.8602 81.691C71.9587 82.1435 71.9525 82.7005 71.8417 83.3622L71.7678 83.8239H66.3019L66.4497 82.8821H70.8076C70.8784 82.482 70.8599 82.125 70.7522 81.8111C70.6476 81.4972 70.4645 81.2494 70.2029 81.0678C69.9443 80.8862 69.6166 80.7955 69.2195 80.7955C68.8102 80.7955 68.4286 80.9062 68.0747 81.1278C67.7207 81.3464 67.4253 81.6233 67.1883 81.9588C66.9513 82.2912 66.8036 82.6297 66.7451 82.9744L66.6159 83.7869C66.5235 84.3748 66.5374 84.8426 66.6574 85.1903C66.7805 85.5381 66.9944 85.7889 67.2991 85.9428C67.6038 86.0936 67.9854 86.169 68.444 86.169C68.7364 86.169 69.0056 86.129 69.2519 86.049C69.4981 85.9659 69.7181 85.8428 69.912 85.6797C70.1059 85.5135 70.269 85.3073 70.4014 85.0611L71.3985 85.3565C71.2293 85.7135 70.9907 86.0275 70.683 86.2983C70.3783 86.566 70.0213 86.7753 69.6119 86.9261C69.2057 87.0739 68.761 87.1477 68.2778 87.1477ZM74.9832 87.1662C74.5339 87.1662 74.1399 87.0816 73.8014 86.9123C73.4629 86.7399 73.212 86.4922 73.0489 86.169C72.8858 85.8428 72.8412 85.4489 72.915 84.9872C72.9858 84.581 73.1228 84.2517 73.3259 83.9993C73.529 83.7438 73.7752 83.5438 74.0645 83.3991C74.3569 83.2514 74.6708 83.1422 75.0063 83.0714C75.3448 82.9975 75.6818 82.9406 76.0173 82.9006C76.4543 82.8452 76.8098 82.8021 77.0837 82.7713C77.3576 82.7405 77.5638 82.6897 77.7023 82.619C77.8408 82.5482 77.9255 82.4266 77.9562 82.2543V82.2173C78.0301 81.7649 77.9701 81.4125 77.7762 81.1602C77.5823 80.9047 77.2361 80.777 76.7375 80.777C76.2204 80.777 75.788 80.8909 75.4402 81.1186C75.0925 81.3464 74.8355 81.5895 74.6693 81.848L73.7091 81.4787C73.9614 81.0478 74.263 80.7124 74.6139 80.4723C74.9648 80.2292 75.3325 80.0599 75.7172 79.9645C76.1019 79.866 76.4728 79.8168 76.8298 79.8168C77.0576 79.8168 77.3145 79.8445 77.6008 79.8999C77.887 79.9522 78.1547 80.0614 78.404 80.2276C78.6564 80.3938 78.8457 80.6446 78.9719 80.9801C79.1011 81.3156 79.1196 81.7649 79.0273 82.3281L78.2517 87H77.1622L77.3284 86.0398H77.273C77.1745 86.1937 77.0237 86.3583 76.8206 86.5337C76.6205 86.7092 76.3666 86.8584 76.0589 86.9815C75.7542 87.1046 75.3956 87.1662 74.9832 87.1662ZM75.2971 86.1875C75.728 86.1875 76.105 86.1029 76.4282 85.9336C76.7544 85.7643 77.016 85.5458 77.213 85.2781C77.413 85.0103 77.5377 84.7287 77.5869 84.4332L77.7531 83.4361C77.6977 83.4915 77.5884 83.5423 77.4253 83.5884C77.2622 83.6315 77.0776 83.67 76.8714 83.7038C76.6682 83.7346 76.4697 83.7623 76.2758 83.7869C76.085 83.8085 75.9311 83.8269 75.8142 83.8423C75.5249 83.8793 75.2494 83.9393 74.9878 84.0224C74.7293 84.1024 74.5108 84.224 74.3323 84.3871C74.1569 84.5471 74.0476 84.7656 74.0045 85.0426C73.9399 85.4212 74.0307 85.7074 74.2769 85.9013C74.5231 86.0921 74.8632 86.1875 75.2971 86.1875ZM86.7587 87.1477C86.0908 87.1477 85.543 86.9908 85.1152 86.6768C84.6905 86.3629 84.3951 85.9305 84.2289 85.3796C84.0627 84.8287 84.0381 84.1993 84.155 83.4915C84.272 82.7713 84.5089 82.1358 84.8659 81.5849C85.2229 81.0309 85.6677 80.5985 86.2001 80.2876C86.7325 79.9737 87.3188 79.8168 87.959 79.8168C88.4576 79.8168 88.8915 79.9091 89.2608 80.0937C89.6301 80.2784 89.9148 80.5369 90.1149 80.8693C90.3149 81.2017 90.4088 81.5895 90.3965 82.0327H89.307C89.2762 81.7095 89.1377 81.4233 88.8915 81.174C88.6484 80.9216 88.2883 80.7955 87.8113 80.7955C87.3865 80.7955 86.9957 80.9062 86.6387 81.1278C86.2817 81.3464 85.9816 81.6557 85.7385 82.0558C85.4953 82.4528 85.3307 82.919 85.2445 83.4545C85.1522 84.0024 85.1599 84.4794 85.2676 84.8857C85.3753 85.2919 85.5707 85.6074 85.8539 85.832C86.137 86.0567 86.494 86.169 86.9249 86.169C87.208 86.169 87.4727 86.1198 87.7189 86.0213C87.9651 85.9228 88.1836 85.7812 88.3745 85.5966C88.5653 85.4119 88.7161 85.1903 88.8269 84.9318H89.9164C89.781 85.3504 89.564 85.7274 89.2654 86.0629C88.9669 86.3952 88.6053 86.6599 88.1806 86.8569C87.7559 87.0508 87.2819 87.1477 86.7587 87.1477ZM93.2264 87.1662C92.777 87.1662 92.3831 87.0816 92.0446 86.9123C91.706 86.7399 91.4552 86.4922 91.2921 86.169C91.129 85.8428 91.0843 85.4489 91.1582 84.9872C91.229 84.581 91.3659 84.2517 91.5691 83.9993C91.7722 83.7438 92.0184 83.5438 92.3077 83.3991C92.6001 83.2514 92.914 83.1422 93.2495 83.0714C93.588 82.9975 93.925 82.9406 94.2605 82.9006C94.6975 82.8452 95.053 82.8021 95.3269 82.7713C95.6008 82.7405 95.807 82.6897 95.9455 82.619C96.084 82.5482 96.1686 82.4266 96.1994 82.2543V82.2173C96.2733 81.7649 96.2132 81.4125 96.0193 81.1602C95.8255 80.9047 95.4792 80.777 94.9806 80.777C94.4636 80.777 94.0312 80.8909 93.6834 81.1186C93.3356 81.3464 93.0787 81.5895 92.9125 81.848L91.9522 81.4787C92.2046 81.0478 92.5062 80.7124 92.8571 80.4723C93.2079 80.2292 93.5757 80.0599 93.9604 79.9645C94.3451 79.866 94.716 79.8168 95.073 79.8168C95.3007 79.8168 95.5577 79.8445 95.8439 79.8999C96.1301 79.9522 96.3979 80.0614 96.6472 80.2276C96.8996 80.3938 97.0888 80.6446 97.215 80.9801C97.3443 81.3156 97.3627 81.7649 97.2704 82.3281L96.4948 87H95.4054L95.5716 86.0398H95.5162C95.4177 86.1937 95.2669 86.3583 95.0637 86.5337C94.8637 86.7092 94.6098 86.8584 94.302 86.9815C93.9973 87.1046 93.6388 87.1662 93.2264 87.1662ZM93.5403 86.1875C93.9712 86.1875 94.3482 86.1029 94.6713 85.9336C94.9976 85.7643 95.2592 85.5458 95.4561 85.2781C95.6562 85.0103 95.7808 84.7287 95.8301 84.4332L95.9963 83.4361C95.9409 83.4915 95.8316 83.5423 95.6685 83.5884C95.5054 83.6315 95.3207 83.67 95.1145 83.7038C94.9114 83.7346 94.7129 83.7623 94.519 83.7869C94.3282 83.8085 94.1743 83.8269 94.0573 83.8423C93.768 83.8793 93.4926 83.9393 93.231 84.0224C92.9725 84.1024 92.754 84.224 92.5755 84.3871C92.4 84.5471 92.2908 84.7656 92.2477 85.0426C92.1831 85.4212 92.2738 85.7074 92.5201 85.9013C92.7663 86.0921 93.1064 86.1875 93.5403 86.1875ZM98.4834 87L99.6652 79.9091H100.718L100.533 80.9801H100.607C100.792 80.6293 101.073 80.3446 101.452 80.1261C101.83 79.9075 102.232 79.7983 102.657 79.7983C102.74 79.7983 102.84 79.7998 102.957 79.8029C103.074 79.8029 103.165 79.8075 103.229 79.8168L103.044 80.9247C103.008 80.9155 102.924 80.9016 102.795 80.8832C102.666 80.8616 102.527 80.8509 102.38 80.8509C102.035 80.8509 101.716 80.9232 101.424 81.0678C101.132 81.2094 100.887 81.4064 100.69 81.6587C100.493 81.908 100.367 82.1927 100.312 82.5128L99.5729 87H98.4834ZM105.798 87.1477C105.204 87.1477 104.706 86.9985 104.302 86.6999C103.899 86.3983 103.615 85.9736 103.448 85.4258C103.285 84.8749 103.265 84.224 103.388 83.473C103.515 82.7282 103.75 82.0819 104.095 81.5341C104.442 80.9863 104.869 80.5631 105.373 80.2646C105.878 79.966 106.429 79.8168 107.026 79.8168C107.488 79.8168 107.84 79.8937 108.083 80.0476C108.33 80.1984 108.508 80.3707 108.619 80.5646C108.73 80.7554 108.814 80.9124 108.873 81.0355H108.965L109.547 77.5455H110.636L109.067 87H108.014L108.199 85.9105H108.07C107.968 86.0398 107.826 86.2029 107.645 86.3999C107.463 86.5937 107.223 86.7676 106.925 86.9215C106.629 87.0723 106.254 87.1477 105.798 87.1477ZM106.066 86.169C106.503 86.169 106.894 86.0552 107.239 85.8274C107.586 85.5966 107.876 85.2781 108.106 84.8718C108.337 84.4625 108.497 83.9901 108.587 83.4545C108.676 82.9252 108.673 82.462 108.577 82.065C108.482 81.6649 108.299 81.354 108.028 81.1325C107.757 80.9078 107.399 80.7955 106.952 80.7955C106.494 80.7955 106.095 80.9139 105.757 81.1509C105.418 81.3848 105.143 81.7034 104.93 82.1065C104.718 82.5066 104.57 82.956 104.487 83.4545C104.404 83.9593 104.402 84.4178 104.483 84.8303C104.563 85.2396 104.732 85.5658 104.99 85.8089C105.252 86.049 105.61 86.169 106.066 86.169ZM119.126 79.9091L118.978 80.8324H115.304L115.451 79.9091H119.126ZM116.799 78.2102H117.889L116.762 84.9687C116.713 85.2765 116.721 85.5073 116.785 85.6612C116.853 85.812 116.955 85.9136 117.09 85.9659C117.229 86.0151 117.378 86.0398 117.538 86.0398C117.658 86.0398 117.756 86.0336 117.833 86.0213C117.91 86.0059 117.972 85.9936 118.018 85.9844L118.092 86.9631C118.009 86.9908 117.896 87.0185 117.755 87.0462C117.616 87.0769 117.446 87.0923 117.242 87.0923C116.935 87.0923 116.645 87.0262 116.375 86.8938C116.104 86.7615 115.896 86.5599 115.751 86.2891C115.607 86.0182 115.568 85.6766 115.636 85.2642L116.799 78.2102ZM122.434 87.1477C121.781 87.1477 121.235 86.9923 120.795 86.6815C120.355 86.3706 120.044 85.9351 119.862 85.375C119.684 84.8149 119.655 84.1624 119.775 83.4176C119.892 82.6913 120.124 82.0588 120.472 81.5202C120.823 80.9786 121.258 80.56 121.778 80.2646C122.301 79.966 122.877 79.8168 123.505 79.8168C124.157 79.8168 124.702 79.9737 125.139 80.2876C125.579 80.5985 125.89 81.0355 126.071 81.5987C126.253 82.1589 126.284 82.8144 126.164 83.5653C126.047 84.2855 125.811 84.9149 125.457 85.4535C125.107 85.989 124.671 86.406 124.151 86.7045C123.634 87 123.062 87.1477 122.434 87.1477ZM122.452 86.169C122.951 86.169 123.383 86.0413 123.749 85.7859C124.119 85.5304 124.417 85.1934 124.645 84.7749C124.876 84.3563 125.031 83.9039 125.111 83.4176C125.185 82.956 125.182 82.5266 125.102 82.1296C125.022 81.7295 124.851 81.4079 124.59 81.1648C124.328 80.9186 123.96 80.7955 123.486 80.7955C122.988 80.7955 122.552 80.9247 122.18 81.1832C121.81 81.4418 121.512 81.7818 121.284 82.2035C121.056 82.6251 120.904 83.0791 120.827 83.5653C120.753 84.027 120.755 84.4563 120.832 84.8533C120.912 85.2473 121.083 85.5658 121.344 85.8089C121.609 86.049 121.978 86.169 122.452 86.169ZM135.186 79.9091L135.038 80.8324H131.363L131.511 79.9091H135.186ZM132.859 78.2102H133.948L132.822 84.9687C132.773 85.2765 132.78 85.5073 132.845 85.6612C132.913 85.812 133.014 85.9136 133.15 85.9659C133.288 86.0151 133.437 86.0398 133.597 86.0398C133.718 86.0398 133.816 86.0336 133.893 86.0213C133.97 86.0059 134.031 85.9936 134.078 85.9844L134.151 86.9631C134.068 86.9908 133.956 87.0185 133.814 87.0462C133.676 87.0769 133.505 87.0923 133.302 87.0923C132.994 87.0923 132.705 87.0262 132.434 86.8938C132.163 86.7615 131.956 86.5599 131.811 86.2891C131.666 86.0182 131.628 85.6766 131.695 85.2642L132.859 78.2102ZM137.586 82.7344L136.884 87H135.795L137.365 77.5455H138.454L137.882 81.017H137.974C138.195 80.6477 138.491 80.3553 138.86 80.1399C139.233 79.9245 139.7 79.8168 140.264 79.8168C140.744 79.8168 141.148 79.9137 141.478 80.1076C141.81 80.2984 142.044 80.5923 142.18 80.9893C142.318 81.3833 142.338 81.8849 142.24 82.4943L141.482 87H140.393L141.132 82.5682C141.224 82.005 141.148 81.5695 140.905 81.2617C140.665 80.9509 140.291 80.7955 139.784 80.7955C139.427 80.7955 139.094 80.8709 138.786 81.0217C138.482 81.1725 138.223 81.3925 138.011 81.6818C137.802 81.9711 137.66 82.322 137.586 82.7344ZM146.43 87.1477C145.75 87.1477 145.188 86.9969 144.745 86.6953C144.302 86.3906 143.993 85.9659 143.817 85.4212C143.642 84.8733 143.614 84.2363 143.734 83.5099C143.854 82.7836 144.093 82.1435 144.45 81.5895C144.807 81.0324 145.251 80.5985 145.784 80.2876C146.316 79.9737 146.901 79.8168 147.538 79.8168C147.907 79.8168 148.263 79.8783 148.604 80.0014C148.946 80.1245 149.242 80.3246 149.491 80.6016C149.74 80.8755 149.914 81.2386 150.013 81.691C150.111 82.1435 150.105 82.7005 149.994 83.3622L149.92 83.8239H144.454L144.602 82.8821H148.96C149.031 82.482 149.012 82.125 148.905 81.8111C148.8 81.4972 148.617 81.2494 148.355 81.0678C148.097 80.8862 147.769 80.7955 147.372 80.7955C146.963 80.7955 146.581 80.9062 146.227 81.1278C145.873 81.3464 145.578 81.6233 145.341 81.9588C145.104 82.2912 144.956 82.6297 144.897 82.9744L144.768 83.7869C144.676 84.3748 144.69 84.8426 144.81 85.1903C144.933 85.5381 145.147 85.7889 145.451 85.9428C145.756 86.0936 146.138 86.169 146.596 86.169C146.889 86.169 147.158 86.129 147.404 86.049C147.65 85.9659 147.87 85.8428 148.064 85.6797C148.258 85.5135 148.421 85.3073 148.554 85.0611L149.551 85.3565C149.382 85.7135 149.143 86.0275 148.835 86.2983C148.531 86.566 148.174 86.7753 147.764 86.9261C147.358 87.0739 146.913 87.1477 146.43 87.1477ZM157.392 87.1477C156.798 87.1477 156.299 86.9985 155.896 86.6999C155.493 86.3983 155.208 85.9736 155.042 85.4258C154.879 84.8749 154.859 84.224 154.982 83.473C155.108 82.7282 155.344 82.0819 155.688 81.5341C156.036 80.9863 156.462 80.5631 156.967 80.2646C157.472 79.966 158.023 79.8168 158.62 79.8168C159.082 79.8168 159.434 79.8937 159.677 80.0476C159.923 80.1984 160.102 80.3707 160.213 80.5646C160.323 80.7554 160.408 80.9124 160.467 81.0355H160.559L161.141 77.5455H162.23L160.66 87H159.608L159.793 85.9105H159.663C159.562 86.0398 159.42 86.2029 159.239 86.3999C159.057 86.5937 158.817 86.7676 158.518 86.9215C158.223 87.0723 157.847 87.1477 157.392 87.1477ZM157.66 86.169C158.097 86.169 158.488 86.0552 158.832 85.8274C159.18 85.5966 159.469 85.2781 159.7 84.8718C159.931 84.4625 160.091 83.9901 160.18 83.4545C160.27 82.9252 160.266 82.462 160.171 82.065C160.076 81.6649 159.893 81.354 159.622 81.1325C159.351 80.9078 158.992 80.7955 158.546 80.7955C158.087 80.7955 157.689 80.9139 157.35 81.1509C157.012 81.3848 156.736 81.7034 156.524 82.1065C156.312 82.5066 156.164 82.956 156.081 83.4545C155.998 83.9593 155.996 84.4178 156.076 84.8303C156.156 85.2396 156.326 85.5658 156.584 85.8089C156.846 86.049 157.204 86.169 157.66 86.169ZM165.752 87.1477C165.072 87.1477 164.511 86.9969 164.067 86.6953C163.624 86.3906 163.315 85.9659 163.139 85.4212C162.964 84.8733 162.936 84.2363 163.056 83.5099C163.176 82.7836 163.415 82.1435 163.772 81.5895C164.129 81.0324 164.574 80.5985 165.106 80.2876C165.639 79.9737 166.223 79.8168 166.86 79.8168C167.23 79.8168 167.585 79.8783 167.927 80.0014C168.268 80.1245 168.564 80.3246 168.813 80.6016C169.062 80.8755 169.236 81.2386 169.335 81.691C169.433 82.1435 169.427 82.7005 169.316 83.3622L169.242 83.8239H163.777L163.924 82.8821H168.282C168.353 82.482 168.335 82.125 168.227 81.8111C168.122 81.4972 167.939 81.2494 167.677 81.0678C167.419 80.8862 167.091 80.7955 166.694 80.7955C166.285 80.7955 165.903 80.9062 165.549 81.1278C165.195 81.3464 164.9 81.6233 164.663 81.9588C164.426 82.2912 164.278 82.6297 164.22 82.9744L164.09 83.7869C163.998 84.3748 164.012 84.8426 164.132 85.1903C164.255 85.5381 164.469 85.7889 164.774 85.9428C165.078 86.0936 165.46 86.169 165.919 86.169C166.211 86.169 166.48 86.129 166.726 86.049C166.973 85.9659 167.193 85.8428 167.387 85.6797C167.581 85.5135 167.744 85.3073 167.876 85.0611L168.873 85.3565C168.704 85.7135 168.465 86.0275 168.158 86.2983C167.853 86.566 167.496 86.7753 167.087 86.9261C166.68 87.0739 166.236 87.1477 165.752 87.1477ZM173.252 87.1477C172.584 87.1477 172.036 86.9908 171.608 86.6768C171.184 86.3629 170.888 85.9305 170.722 85.3796C170.556 84.8287 170.531 84.1993 170.648 83.4915C170.765 82.7713 171.002 82.1358 171.359 81.5849C171.716 81.0309 172.161 80.5985 172.693 80.2876C173.226 79.9737 173.812 79.8168 174.452 79.8168C174.951 79.8168 175.385 79.9091 175.754 80.0937C176.123 80.2784 176.408 80.5369 176.608 80.8693C176.808 81.2017 176.902 81.5895 176.89 82.0327H175.8C175.769 81.7095 175.631 81.4233 175.385 81.174C175.142 80.9216 174.781 80.7955 174.304 80.7955C173.88 80.7955 173.489 80.9062 173.132 81.1278C172.775 81.3464 172.475 81.6557 172.232 82.0558C171.988 82.4528 171.824 82.919 171.738 83.4545C171.645 84.0024 171.653 84.4794 171.761 84.8857C171.868 85.2919 172.064 85.6074 172.347 85.832C172.63 86.0567 172.987 86.169 173.418 86.169C173.701 86.169 173.966 86.1198 174.212 86.0213C174.458 85.9228 174.677 85.7812 174.868 85.5966C175.058 85.4119 175.209 85.1903 175.32 84.9318H176.41C176.274 85.3504 176.057 85.7274 175.759 86.0629C175.46 86.3952 175.098 86.6599 174.674 86.8569C174.249 87.0508 173.775 87.1477 173.252 87.1477ZM179.092 84.4148L179.295 83.0668H179.516L183.154 79.9091H184.502L180.643 83.2514H180.551L179.092 84.4148ZM177.651 87L179.221 77.5455H180.31L178.741 87H177.651ZM182.157 87L179.978 83.4915L180.864 82.7344L183.542 87H182.157ZM185.646 87.0739C185.412 87.0739 185.217 86.9938 185.06 86.8338C184.903 86.6707 184.821 86.4737 184.815 86.2429C184.812 86.0121 184.893 85.8197 185.06 85.6658C185.226 85.5089 185.421 85.4304 185.646 85.4304C185.874 85.4304 186.071 85.5104 186.237 85.6705C186.403 85.8305 186.483 86.0213 186.477 86.2429C186.474 86.3968 186.434 86.5368 186.357 86.663C186.283 86.7892 186.183 86.8892 186.057 86.9631C185.934 87.0369 185.797 87.0739 185.646 87.0739Z" fill="black"/>
<path opacity="0.5" d="M24.9418 369H23.7415L28.7827 359.545H29.9645L31.8665 369H30.6662L29.1705 361.041H29.0966L24.9418 369ZM25.9943 365.307H30.8324L30.6662 366.322H25.8281L25.9943 365.307ZM33.1914 369L34.3732 361.909H35.4258L35.2411 362.98H35.315C35.4996 362.629 35.7812 362.345 36.1598 362.126C36.5384 361.908 36.94 361.798 37.3647 361.798C37.4478 361.798 37.5478 361.8 37.6648 361.803C37.7817 361.803 37.8725 361.808 37.9371 361.817L37.7525 362.925C37.7156 362.915 37.6325 362.902 37.5032 362.883C37.3739 362.862 37.2354 362.851 37.0877 362.851C36.743 362.851 36.4245 362.923 36.1321 363.068C35.8397 363.209 35.5951 363.406 35.3981 363.659C35.2011 363.908 35.0749 364.193 35.0195 364.513L34.2809 369H33.1914ZM40.7924 369.148C40.1123 369.148 39.5506 368.997 39.1074 368.695C38.6642 368.391 38.3549 367.966 38.1795 367.421C38.0041 366.873 37.9764 366.236 38.0964 365.51C38.2164 364.784 38.455 364.143 38.812 363.589C39.169 363.032 39.6137 362.598 40.1461 362.288C40.6786 361.974 41.2633 361.817 41.9004 361.817C42.2697 361.817 42.6252 361.878 42.9668 362.001C43.3084 362.125 43.6039 362.325 43.8532 362.602C44.1024 362.875 44.2763 363.239 44.3748 363.691C44.4733 364.143 44.4672 364.701 44.3564 365.362L44.2825 365.824H38.8166L38.9643 364.882H43.3223C43.3931 364.482 43.3746 364.125 43.2669 363.811C43.1622 363.497 42.9791 363.249 42.7175 363.068C42.459 362.886 42.1312 362.795 41.7342 362.795C41.3249 362.795 40.9432 362.906 40.5893 363.128C40.2354 363.346 39.9399 363.623 39.7029 363.959C39.466 364.291 39.3182 364.63 39.2598 364.974L39.1305 365.787C39.0382 366.375 39.052 366.843 39.1721 367.19C39.2952 367.538 39.5091 367.789 39.8137 367.943C40.1184 368.094 40.5001 368.169 40.9586 368.169C41.251 368.169 41.5203 368.129 41.7665 368.049C42.0127 367.966 42.2328 367.843 42.4267 367.68C42.6206 367.513 42.7837 367.307 42.916 367.061L43.9132 367.357C43.7439 367.714 43.5054 368.027 43.1976 368.298C42.8929 368.566 42.5359 368.775 42.1266 368.926C41.7203 369.074 41.2756 369.148 40.7924 369.148ZM47.4979 369.166C47.0485 369.166 46.6546 369.082 46.316 368.912C45.9775 368.74 45.7267 368.492 45.5636 368.169C45.4004 367.843 45.3558 367.449 45.4297 366.987C45.5005 366.581 45.6374 366.252 45.8406 365.999C46.0437 365.744 46.2899 365.544 46.5792 365.399C46.8716 365.251 47.1855 365.142 47.521 365.071C47.8595 364.998 48.1965 364.941 48.532 364.901C48.969 364.845 49.3245 364.802 49.5984 364.771C49.8723 364.741 50.0785 364.69 50.217 364.619C50.3555 364.548 50.4401 364.427 50.4709 364.254V364.217C50.5447 363.765 50.4847 363.413 50.2908 363.16C50.0969 362.905 49.7507 362.777 49.2521 362.777C48.7351 362.777 48.3027 362.891 47.9549 363.119C47.6071 363.346 47.3501 363.589 47.1839 363.848L46.2237 363.479C46.4761 363.048 46.7777 362.712 47.1285 362.472C47.4794 362.229 47.8472 362.06 48.2319 361.964C48.6166 361.866 48.9875 361.817 49.3445 361.817C49.5722 361.817 49.8292 361.844 50.1154 361.9C50.4016 361.952 50.6694 362.061 50.9187 362.228C51.171 362.394 51.3603 362.645 51.4865 362.98C51.6158 363.316 51.6342 363.765 51.5419 364.328L50.7663 369H49.6768L49.843 368.04H49.7876C49.6892 368.194 49.5384 368.358 49.3352 368.534C49.1352 368.709 48.8813 368.858 48.5735 368.982C48.2688 369.105 47.9103 369.166 47.4979 369.166ZM47.8118 368.187C48.2427 368.187 48.6197 368.103 48.9428 367.934C49.2691 367.764 49.5307 367.546 49.7276 367.278C49.9277 367.01 50.0523 366.729 50.1016 366.433L50.2678 365.436C50.2124 365.491 50.1031 365.542 49.94 365.588C49.7769 365.632 49.5922 365.67 49.386 365.704C49.1829 365.735 48.9844 365.762 48.7905 365.787C48.5997 365.808 48.4458 365.827 48.3288 365.842C48.0395 365.879 47.7641 365.939 47.5025 366.022C47.244 366.102 47.0254 366.224 46.8469 366.387C46.6715 366.547 46.5623 366.766 46.5192 367.043C46.4545 367.421 46.5453 367.707 46.7915 367.901C47.0378 368.092 47.3778 368.187 47.8118 368.187Z" fill="black"/>
<rect x="191.5" y="339.5" width="45" height="45" rx="4.5" stroke="black"/>
<rect x="192" y="340" width="44" height="44" rx="4" fill="white"/>
<rect x="211" y="359" width="6" height="6" rx="3" fill="black"/>
<rect x="222" y="348" width="6" height="6" rx="3" fill="black"/>
<rect x="200" y="370" width="6" height="6" rx="3" fill="black"/>
</svg>
