<svg fill="none" height="66" viewBox="0 0 66 66" width="66" xmlns="http://www.w3.org/2000/svg" xmlns:xlink="http://www.w3.org/1999/xlink"><linearGradient id="a"><stop offset="0" stop-color="#e5e5e5"/><stop offset="1"/></linearGradient><linearGradient id="b" gradientUnits="userSpaceOnUse" x1="33" x2="33" xlink:href="#a" y1="2" y2="12"/><linearGradient id="c" gradientUnits="userSpaceOnUse" x1="33" x2="33" y1="13" y2="53"><stop offset="0" stop-opacity="0"/><stop offset="1" stop-color="#878787"/></linearGradient><linearGradient id="d" gradientUnits="userSpaceOnUse" x1="20" x2="46" y1="41.5" y2="41.5"><stop offset="0" stop-opacity="0"/><stop offset=".33"/><stop offset=".66"/><stop offset="1" stop-opacity="0"/></linearGradient><linearGradient id="e"><stop offset="0"/><stop offset="1" stop-opacity="0"/></linearGradient><linearGradient id="f" gradientUnits="userSpaceOnUse" x1="25" x2="25" xlink:href="#e" y1="26" y2="30"/><linearGradient id="g" gradientUnits="userSpaceOnUse" x1="41" x2="41" xlink:href="#e" y1="26" y2="30"/><linearGradient id="h" gradientUnits="userSpaceOnUse" x1="33" x2="33" y1="29" y2="35"><stop offset="0" stop-color="#fff" stop-opacity="0"/><stop offset="1" stop-color="#fff"/></linearGradient><linearGradient id="i" gradientUnits="userSpaceOnUse" x1="33" x2="33" xlink:href="#a" y1="64" y2="54"/><linearGradient id="j" gradientUnits="userSpaceOnUse" x1="2" x2="12" xlink:href="#a" y1="33" y2="33"/><linearGradient id="k" gradientUnits="userSpaceOnUse" x1="64" x2="54" xlink:href="#a" y1="33" y2="33"/><linearGradient id="l" gradientUnits="userSpaceOnUse" x1="11.0801" x2="18.1511" xlink:href="#a" y1="54.9206" y2="47.8495"/><linearGradient id="m" gradientUnits="userSpaceOnUse" x1="54.9209" x2="47.8498" xlink:href="#a" y1="11.0799" y2="18.151"/><linearGradient id="n" gradientUnits="userSpaceOnUse" x1="54.9206" x2="47.8495" xlink:href="#a" y1="54.9204" y2="47.8493"/><linearGradient id="o" gradientUnits="userSpaceOnUse" x1="11.0799" x2="18.151" xlink:href="#a" y1="11.0796" y2="18.1507"/><rect height="48" rx="24" stroke="#ccc" stroke-width="2" width="48" x="9" y="9"/><path d="m48.5562 16.0293h2v4h-2z" fill="#ccc" transform="matrix(.70710678 .70710678 -.70710678 .70710678 25.556208 -29.639545)"/><path d="m18.8579 45.728h2v4h-2z" fill="#ccc" transform="matrix(.70710678 .70710678 -.70710678 .70710678 37.85793 .058872)"/><path d="m49.9702 48.5562h2v4h-2z" fill="#ccc" transform="matrix(-.70710678 .70710678 -.70710678 -.70710678 119.638886 47.556351)"/><path d="m20.272 18.8579h2v4h-2z" fill="#ccc" transform="matrix(-.70710678 .70710678 -.70710678 -.70710678 47.941018 17.85798)"/><rect height="64" opacity=".1" rx="32" stroke="#000" stroke-width="2" width="64" x="1" y="1"/><path d="m34 .999933h-1c-1.1046 0-2 .895427-2 1.999997s.8954 2 2 2 2 .89547 2 2.00004-.8954 2.00003-2 2.00003-2 .89549-2 2.0001c0 1.1045.8954 1.9999 1.9999 1.9999" stroke="url(#b)" stroke-width="2"/><rect fill="#2d2d2d" height="40" rx="20" width="40" x="13" y="13"/><rect fill="url(#c)" fill-opacity=".44" height="40" rx="20" width="40" x="13" y="13"/><rect height="40" rx="20" stroke="#000" stroke-width="2" width="40" x="13" y="13"/><path d="m31 46h4v2h-4z" fill="#1d1d1d" opacity=".3"/><path d="m30 36h2l1 1 1-1h2" stroke="#000" stroke-width="2"/><path d="m26 42 7 1 7-1" opacity=".3" stroke="#000" stroke-width="2"/><path d="m31 36 2 2 2-2" opacity=".3" stroke="#000" stroke-width="2"/><path d="m46 41.9249s-3.4223.169-5.5714 0c-2.2654-.1781-5.5715-.9249-5.5715-.9249l-1.8571.9249-1.8571-.9249s-3.3061.7468-5.5715.9249c-2.1491.169-5.5714 0-5.5714 0" stroke="url(#d)" stroke-width="2"/><circle cx="41" cy="30" fill="#000" r="1"/><circle cx="25" cy="30" fill="#000" r="1"/><path d="m40 23h2v4h-2z" fill="#000"/><path d="m40 30h2v5h-2z" fill="#000" opacity=".3"/><path d="m45 39h2v2h-2z" fill="#000" opacity=".3"/><path d="m32 27h2v2h-2z" fill="#000" opacity=".3"/><path d="m19 39h2v2h-2z" fill="#000" opacity=".3"/><path d="m24 23h2v4h-2z" fill="#000"/><path d="m24 30h2v5h-2z" fill="#000" opacity=".3"/><path d="m29 30c0-.5253-.1035-1.0454-.3045-1.5307s-.4956-.9263-.8671-1.2977c-.3714-.3715-.8124-.6661-1.2977-.8671s-1.0054-.3045-1.5307-.3045-1.0454.1035-1.5307.3045-.9263.4956-1.2977.8671c-.3715.3714-.6661.8124-.8671 1.2977s-.3045 1.0054-.3045 1.5307" stroke="url(#f)" stroke-width="2"/><path d="m45 30c0-.5253-.1035-1.0454-.3045-1.5307s-.4956-.9263-.8671-1.2977c-.3714-.3715-.8124-.6661-1.2977-.8671s-1.0054-.3045-1.5307-.3045-1.0454.1035-1.5307.3045-.9263.4956-1.2977.8671c-.3715.3714-.6661.8124-.8671 1.2977s-.3045 1.0054-.3045 1.5307" stroke="url(#g)" stroke-width="2"/><path d="m32 29h2v6h-2z" fill="url(#h)" opacity=".2"/><g stroke-width="2"><path d="m43 30c0-.2626-.0517-.5227-.1522-.7654-.1006-.2426-.2479-.4631-.4336-.6488s-.4062-.333-.6488-.4336c-.2427-.1005-.5028-.1522-.7654-.1522s-.5227.0517-.7654.1522c-.2426.1006-.4631.2479-.6488.4336s-.333.4062-.4336.6488c-.1005.2427-.1522.5028-.1522.7654" opacity=".4" stroke="#fff"/><path d="m27 30c0-.2626-.0517-.5227-.1522-.7654-.1006-.2426-.2479-.4631-.4336-.6488s-.4062-.333-.6488-.4336c-.2427-.1005-.5028-.1522-.7654-.1522s-.5227.0517-.7654.1522c-.2426.1006-.4631.2479-.6488.4336s-.333.4062-.4336.6488c-.1005.2427-.1522.5028-.1522.7654" opacity=".4" stroke="#fff"/><path d="m32 65.0001h1c1.1046 0 2-.8955 2-2 0-1.1046-.8954-2-2-2s-2-.8955-2-2.0001c0-1.1045.8954-2 2-2s2-.8955 2-2.0001c0-1.1045-.8954-1.9999-1.9999-1.9999" stroke="url(#i)"/><path d="m9.61751 19.4999 5.06219 5.232 2-3.4641z" fill="#2a2a2a" stroke="#000"/><path d="m56.383 46.4999-7.0622-1.768 2-3.4641z" fill="#2a2a2a" stroke="#000"/><path d="m46.4999 9.61751-1.768 7.06219-3.4641-2z" fill="#2a2a2a" stroke="#000"/><path d="m39.9882 59.0803-3.7436-6.2439 3.8637-1.0353z" fill="#2a2a2a" stroke="#000"/><path d="m6.9201 39.9883 7.2791.1201-1.0353-3.8637z" fill="#2a2a2a" stroke="#000"/><path d="m19.5001 9.61702 1.768 7.06218 3.4641-2z" fill="#2a2a2a" stroke="#000"/><path d="m59.0803 26.0118-6.2439 3.7436-1.0353-3.8637z" fill="#2a2a2a" stroke="#000"/><path d="m19.4999 56.383 5.232-5.0622-3.4641-2z" fill="#2a2a2a" stroke="#000"/><path d="m26.0122 6.9201-.1201 7.2791 3.8637-1.0353z" fill="#2a2a2a" stroke="#000"/><path d="m39.9883 6.9201.1201 7.2791-3.8637-1.0353z" fill="#2a2a2a" stroke="#000"/><path d="m26.0118 59.0803 3.7436-6.2439-3.8637-1.0353z" fill="#2a2a2a" stroke="#000"/><path d="m59.0799 39.9883-7.2791.1201 1.0353-3.8637z" fill="#2a2a2a" stroke="#000"/><path d="m6.92022 26.0118 6.24388 3.7436 1.0352-3.8637z" fill="#2a2a2a" stroke="#000"/><path d="m56.383 19.4999-5.0622 5.232-2-3.4641z" fill="#2a2a2a" stroke="#000"/><path d="m9.61751 46.5004 7.06219-1.768-2-3.4641z" fill="#2a2a2a" stroke="#000"/><path d="m46.5001 56.383-5.232-5.0622 3.4641-2z" fill="#2a2a2a" stroke="#000"/><path d="m.999933 32v1c0 1.1046.895427 2 1.999997 2s2-.8954 2-2 .89547-2 2.00004-2 2.00003.8954 2.00003 2 .89549 2 2.0001 2c1.1045 0 1.9999-.8954 1.9999-1.9999" stroke="url(#j)"/><path d="m65.0001 34v-1c0-1.1046-.8955-2-2-2-1.1046 0-2 .8954-2 2s-.8955 2-2.0001 2c-1.1045 0-2-.8954-2-2s-.8955-2-2.0001-2c-1.1045 0-1.9999.8954-1.9999 1.9999" stroke="url(#k)"/><path d="m9.66581 54.9206.70709.7072c.7811.781 2.0474.781 2.8284 0 .7811-.7811.7811-2.0474 0-2.8285-.781-.781-.781-2.0474.0001-2.8284.781-.7811 2.0474-.7811 2.8284 0 .7811.781 2.0474.781 2.8285-.0001.781-.781.781-2.0473 0-2.8283" stroke="url(#l)"/><path d="m56.3352 11.0798-.7071-.7071c-.7811-.78102-2.0474-.78102-2.8285 0-.781.7811-.781 2.0474 0 2.8285.7811.781.7811 2.0474 0 2.8284-.781.7811-2.0474.7811-2.8284 0-.7811-.781-2.0475-.781-2.8285.0001-.781.781-.7811 2.0473-.0001 2.8283" stroke="url(#m)"/><path d="m54.9206 56.3347.7072-.7071c.781-.7811.781-2.0474 0-2.8285-.7811-.781-2.0474-.781-2.8285 0-.781.7811-2.0474.7811-2.8284 0-.7811-.781-.7811-2.0474 0-2.8284.781-.7811.781-2.0475-.0001-2.8285-.781-.781-2.0473-.781-2.8283 0" stroke="url(#n)"/><path d="m11.0798 9.66532-.7071.70708c-.78101.7811-.78102 2.0474 0 2.8285.7811.781 2.0474.781 2.8285 0 .781-.7811 2.0474-.7811 2.8284 0 .7811.781.7811 2.0474 0 2.8284-.781.7811-.781 2.0475.0001 2.8285.781.781 2.0473.781 2.8283 0" stroke="url(#o)"/><rect height="48" rx="24" stroke="#ccc" width="48" x="9" y="9"/></g><path d="m48.5562 16.0293h2v4h-2z" fill="#ccc" transform="matrix(.70710678 .70710678 -.70710678 .70710678 25.556208 -29.639545)"/><path d="m18.8579 45.728h2v4h-2z" fill="#ccc" transform="matrix(.70710678 .70710678 -.70710678 .70710678 37.85793 .058872)"/><path d="m49.9702 48.5562h2v4h-2z" fill="#ccc" transform="matrix(-.70710678 .70710678 -.70710678 -.70710678 119.638886 47.556351)"/><path d="m20.272 18.8579h2v4h-2z" fill="#ccc" transform="matrix(-.70710678 .70710678 -.70710678 -.70710678 47.941018 17.85798)"/><rect height="64" opacity=".1" rx="32" stroke="#e5e5e5" stroke-width="2" width="64" x="1" y="1"/><path d="m34 .999933h-1c-1.1046 0-2 .895427-2 1.999997s.8954 2 2 2 2 .89547 2 2.00004-.8954 2.00003-2 2.00003-2 .89549-2 2.0001c0 1.1045.8954 1.9999 1.9999 1.9999" stroke="url(#b)" stroke-width="2"/><rect fill="#2d2d2d" height="40" rx="20" width="40" x="13" y="13"/><rect fill="url(#c)" fill-opacity=".44" height="40" rx="20" width="40" x="13" y="13"/><rect height="40" rx="20" stroke="#000" stroke-width="2" width="40" x="13" y="13"/><path d="m31 46h4v2h-4z" fill="#1d1d1d" opacity=".3"/><path d="m30 36h2l1 1 1-1h2" stroke="#000" stroke-width="2"/><path d="m26 42 7 1 7-1" opacity=".3" stroke="#000" stroke-width="2"/><path d="m31 36 2 2 2-2" opacity=".3" stroke="#000" stroke-width="2"/><path d="m46 41.9249s-3.4223.169-5.5714 0c-2.2654-.1781-5.5715-.9249-5.5715-.9249l-1.8571.9249-1.8571-.9249s-3.3061.7468-5.5715.9249c-2.1491.169-5.5714 0-5.5714 0" stroke="url(#d)" stroke-width="2"/><path d="m40 23h2v4h-2z" fill="#000"/><path d="m40 30h2v5h-2z" fill="#000" opacity=".3"/><path d="m45 39h2v2h-2z" fill="#000" opacity=".3"/><path d="m32 27h2v2h-2z" fill="#000" opacity=".3"/><path d="m19 39h2v2h-2z" fill="#000" opacity=".3"/><path d="m24 23h2v4h-2z" fill="#000"/><path d="m24 30h2v5h-2z" fill="#000" opacity=".3"/><path d="m29 30c0-.5253-.1035-1.0454-.3045-1.5307s-.4956-.9263-.8671-1.2977c-.3714-.3715-.8124-.6661-1.2977-.8671s-1.0054-.3045-1.5307-.3045-1.0454.1035-1.5307.3045-.9263.4956-1.2977.8671c-.3715.3714-.6661.8124-.8671 1.2977s-.3045 1.0054-.3045 1.5307" stroke="url(#f)" stroke-width="2"/><path d="m45 30c0-.5253-.1035-1.0454-.3045-1.5307s-.4956-.9263-.8671-1.2977c-.3714-.3715-.8124-.6661-1.2977-.8671s-1.0054-.3045-1.5307-.3045-1.0454.1035-1.5307.3045-.9263.4956-1.2977.8671c-.3715.3714-.6661.8124-.8671 1.2977s-.3045 1.0054-.3045 1.5307" stroke="url(#g)" stroke-width="2"/><path d="m32 29h2v6h-2z" fill="url(#h)" opacity=".2"/><path d="m43 30c0-.2626-.0517-.5227-.1522-.7654-.1006-.2426-.2479-.4631-.4336-.6488s-.4062-.333-.6488-.4336c-.2427-.1005-.5028-.1522-.7654-.1522s-.5227.0517-.7654.1522c-.2426.1006-.4631.2479-.6488.4336s-.333.4062-.4336.6488c-.1005.2427-.1522.5028-.1522.7654" stroke="#4f4f4f" stroke-width="2"/><path d="m27 30c0-.2626-.0517-.5227-.1522-.7654-.1006-.2426-.2479-.4631-.4336-.6488s-.4062-.333-.6488-.4336c-.2427-.1005-.5028-.1522-.7654-.1522s-.5227.0517-.7654.1522c-.2426.1006-.4631.2479-.6488.4336s-.333.4062-.4336.6488c-.1005.2427-.1522.5028-.1522.7654" stroke="#4f4f4f" stroke-width="2"/><path d="m32 65.0001h1c1.1046 0 2-.8955 2-2 0-1.1046-.8954-2-2-2s-2-.8955-2-2.0001c0-1.1045.8954-2 2-2s2-.8955 2-2.0001c0-1.1045-.8954-1.9999-1.9999-1.9999" stroke="url(#i)" stroke-width="2"/><path d="m9.61751 19.4999 5.06219 5.232 2-3.4641z" fill="#2a2a2a" stroke="#000" stroke-width="2"/><path d="m56.383 46.4999-7.0622-1.768 2-3.4641z" fill="#2a2a2a" stroke="#000" stroke-width="2"/><path d="m39.9882 59.0803-3.7436-6.2439 3.8637-1.0353z" fill="#2a2a2a" stroke="#000" stroke-width="2"/><path d="m6.9201 39.9883 7.2791.1201-1.0353-3.8637z" fill="#2a2a2a" stroke="#000" stroke-width="2"/><path d="m19.5001 9.61702 1.768 7.06218 3.4641-2z" fill="#2a2a2a" stroke="#000" stroke-width="2"/><path d="m59.0803 26.0118-6.2439 3.7436-1.0353-3.8637z" fill="#2a2a2a" stroke="#000" stroke-width="2"/><path d="m19.4999 56.383 5.232-5.0622-3.4641-2z" fill="#2a2a2a" stroke="#000" stroke-width="2"/><path d="m26.0122 6.9201-.1201 7.2791 3.8637-1.0353z" fill="#2a2a2a" stroke="#000" stroke-width="2"/><path d="m39.9883 6.9201.1201 7.2791-3.8637-1.0353z" fill="#2a2a2a" stroke="#000" stroke-width="2"/><path d="m26.0118 59.0803 3.7436-6.2439-3.8637-1.0353z" fill="#2a2a2a" stroke="#000" stroke-width="2"/><path d="m59.0799 39.9883-7.2791.1201 1.0353-3.8637z" fill="#2a2a2a" stroke="#000" stroke-width="2"/><path d="m56.383 19.4999-5.0622 5.232-2-3.4641z" fill="#2a2a2a" stroke="#000" stroke-width="2"/><path d="m9.61751 46.5004 7.06219-1.768-2-3.4641z" fill="#2a2a2a" stroke="#000" stroke-width="2"/><path d="m.999933 32v1c0 1.1046.895427 2 1.999997 2s2-.8954 2-2 .89547-2 2.00004-2 2.00003.8954 2.00003 2 .89549 2 2.0001 2c1.1045 0 1.9999-.8954 1.9999-1.9999" stroke="url(#j)" stroke-width="2"/><path d="m65.0001 34v-1c0-1.1046-.8955-2-2-2-1.1046 0-2 .8954-2 2s-.8955 2-2.0001 2c-1.1045 0-2-.8954-2-2s-.8955-2-2.0001-2c-1.1045 0-1.9999.8954-1.9999 1.9999" stroke="url(#k)" stroke-width="2"/><path d="m9.66581 54.9206.70709.7072c.7811.781 2.0474.781 2.8284 0 .7811-.7811.7811-2.0474 0-2.8285-.781-.781-.781-2.0474.0001-2.8284.781-.7811 2.0474-.7811 2.8284 0 .7811.781 2.0474.781 2.8285-.0001.781-.781.781-2.0473 0-2.8283" stroke="url(#l)" stroke-width="2"/><path d="m56.3352 11.0798-.7071-.7071c-.7811-.78102-2.0474-.78102-2.8285 0-.781.7811-.781 2.0474 0 2.8285.7811.781.7811 2.0474 0 2.8284-.781.7811-2.0474.7811-2.8284 0-.7811-.781-2.0475-.781-2.8285.0001-.781.781-.7811 2.0473-.0001 2.8283" stroke="url(#m)" stroke-width="2"/><path d="m54.9206 56.3347.7072-.7071c.781-.7811.781-2.0474 0-2.8285-.7811-.781-2.0474-.781-2.8285 0-.781.7811-2.0474.7811-2.8284 0-.7811-.781-.7811-2.0474 0-2.8284.781-.7811.781-2.0475-.0001-2.8285-.781-.781-2.0473-.781-2.8283 0" stroke="url(#n)" stroke-width="2"/><path d="m11.0798 9.66532-.7071.70708c-.78101.7811-.78102 2.0474 0 2.8285.7811.781 2.0474.781 2.8285 0 .781-.7811 2.0474-.7811 2.8284 0 .7811.781.7811 2.0474 0 2.8284-.781.7811-.781 2.0475.0001 2.8285.781.781 2.0473.781 2.8283 0" stroke="url(#o)" stroke-width="2"/><circle cx="41" cy="30" fill="#fff" r="1"/><circle cx="25" cy="30" fill="#fff" r="1"/></svg>