<svg width="66" height="66" viewBox="0 0 66 66" fill="none" xmlns="http://www.w3.org/2000/svg">
<rect x="9" y="9" width="48" height="48" rx="24" stroke="#CCCCCC" stroke-width="2"/>
<rect x="48.5562" y="16.0293" width="2" height="4" transform="rotate(45 48.5562 16.0293)" fill="#CCCCCC"/>
<rect x="18.8579" y="45.728" width="2" height="4" transform="rotate(45 18.8579 45.728)" fill="#CCCCCC"/>
<rect x="49.9702" y="48.5562" width="2" height="4" transform="rotate(135 49.9702 48.5562)" fill="#CCCCCC"/>
<rect x="20.272" y="18.8579" width="2" height="4" transform="rotate(135 20.272 18.8579)" fill="#CCCCCC"/>
<rect opacity="0.1" x="1" y="1" width="64" height="64" rx="32" stroke="black" stroke-width="2"/>
<path d="M34 0.999933H33C31.8954 0.999933 31 1.89536 31 2.99993C31 4.1045 31.8954 4.99993 33 4.99993C34.1046 4.99993 35 5.8954 35 6.99997C35 8.10454 34.1046 9 33 9C31.8954 9 31 9.89549 31 11.0001C31 12.1046 31.8954 13 32.9999 13" stroke="url(#paint0_linear_100_42176)" stroke-width="2"/>
<rect x="13" y="13" width="40" height="40" rx="20" fill="#2D2D2D"/>
<rect x="13" y="13" width="40" height="40" rx="20" fill="url(#paint1_linear_100_42176)" fill-opacity="0.44"/>
<rect x="13" y="13" width="40" height="40" rx="20" stroke="black" stroke-width="2"/>
<rect opacity="0.3" x="31" y="46" width="4" height="2" fill="#1D1D1D"/>
<path d="M30 36H32L33 37L34 36H36" stroke="black" stroke-width="2"/>
<path opacity="0.3" d="M26 42L33 43L40 42" stroke="black" stroke-width="2"/>
<path opacity="0.3" d="M31 36L33 38L35 36" stroke="black" stroke-width="2"/>
<path d="M46 41.9249C46 41.9249 42.5777 42.0939 40.4286 41.9249C38.1632 41.7468 34.8571 41 34.8571 41L33 41.9249L31.1429 41C31.1429 41 27.8368 41.7468 25.5714 41.9249C23.4223 42.0939 20 41.9249 20 41.9249" stroke="url(#paint2_linear_100_42176)" stroke-width="2"/>
<circle cx="41" cy="30" r="1" fill="black"/>
<circle cx="25" cy="30" r="1" fill="black"/>
<rect x="40" y="23" width="2" height="4" fill="black"/>
<rect opacity="0.3" x="40" y="30" width="2" height="5" fill="black"/>
<rect opacity="0.3" x="45" y="39" width="2" height="2" fill="black"/>
<rect opacity="0.3" x="32" y="27" width="2" height="2" fill="black"/>
<rect opacity="0.3" x="19" y="39" width="2" height="2" fill="black"/>
<rect x="24" y="23" width="2" height="4" fill="black"/>
<rect opacity="0.3" x="24" y="30" width="2" height="5" fill="black"/>
<path d="M29 30C29 29.4747 28.8965 28.9546 28.6955 28.4693C28.4945 27.984 28.1999 27.543 27.8284 27.1716C27.457 26.8001 27.016 26.5055 26.5307 26.3045C26.0454 26.1035 25.5253 26 25 26C24.4747 26 23.9546 26.1035 23.4693 26.3045C22.984 26.5055 22.543 26.8001 22.1716 27.1716C21.8001 27.543 21.5055 27.984 21.3045 28.4693C21.1035 28.9546 21 29.4747 21 30" stroke="url(#paint3_linear_100_42176)" stroke-width="2"/>
<path d="M45 30C45 29.4747 44.8965 28.9546 44.6955 28.4693C44.4945 27.984 44.1999 27.543 43.8284 27.1716C43.457 26.8001 43.016 26.5055 42.5307 26.3045C42.0454 26.1035 41.5253 26 41 26C40.4747 26 39.9546 26.1035 39.4693 26.3045C38.984 26.5055 38.543 26.8001 38.1716 27.1716C37.8001 27.543 37.5055 27.984 37.3045 28.4693C37.1035 28.9546 37 29.4747 37 30" stroke="url(#paint4_linear_100_42176)" stroke-width="2"/>
<rect opacity="0.2" x="32" y="29" width="2" height="6" fill="url(#paint5_linear_100_42176)"/>
<path opacity="0.4" d="M43 30C43 29.7374 42.9483 29.4773 42.8478 29.2346C42.7472 28.992 42.5999 28.7715 42.4142 28.5858C42.2285 28.4001 42.008 28.2528 41.7654 28.1522C41.5227 28.0517 41.2626 28 41 28C40.7374 28 40.4773 28.0517 40.2346 28.1522C39.992 28.2528 39.7715 28.4001 39.5858 28.5858C39.4001 28.7715 39.2528 28.992 39.1522 29.2346C39.0517 29.4773 39 29.7374 39 30" stroke="white" stroke-width="2"/>
<path opacity="0.4" d="M27 30C27 29.7374 26.9483 29.4773 26.8478 29.2346C26.7472 28.992 26.5999 28.7715 26.4142 28.5858C26.2285 28.4001 26.008 28.2528 25.7654 28.1522C25.5227 28.0517 25.2626 28 25 28C24.7374 28 24.4773 28.0517 24.2346 28.1522C23.992 28.2528 23.7715 28.4001 23.5858 28.5858C23.4001 28.7715 23.2528 28.992 23.1522 29.2346C23.0517 29.4773 23 29.7374 23 30" stroke="white" stroke-width="2"/>
<path d="M32 65.0001H33C34.1046 65.0001 35 64.1046 35 63.0001C35 61.8955 34.1046 61.0001 33 61.0001C31.8954 61.0001 31 60.1046 31 59C31 57.8955 31.8954 57 33 57C34.1046 57 35 56.1045 35 54.9999C35 53.8954 34.1046 53 33.0001 53" stroke="url(#paint6_linear_100_42176)" stroke-width="2"/>
<path d="M9.61751 19.4999L14.6797 24.7319L16.6797 21.2678L9.61751 19.4999Z" fill="#2A2A2A" stroke="black" stroke-width="2"/>
<path d="M56.383 46.4999L49.3208 44.7319L51.3208 41.2678L56.383 46.4999Z" fill="#2A2A2A" stroke="black" stroke-width="2"/>
<path d="M46.4999 9.61751L44.7319 16.6797L41.2678 14.6797L46.4999 9.61751Z" fill="#2A2A2A" stroke="black" stroke-width="2"/>
<path d="M39.9882 59.0803L36.2446 52.8364L40.1083 51.8011L39.9882 59.0803Z" fill="#2A2A2A" stroke="black" stroke-width="2"/>
<path d="M6.9201 39.9883L14.1992 40.1084L13.1639 36.2447L6.9201 39.9883Z" fill="#2A2A2A" stroke="black" stroke-width="2"/>
<path d="M19.5001 9.61702L21.2681 16.6792L24.7322 14.6792L19.5001 9.61702Z" fill="#2A2A2A" stroke="black" stroke-width="2"/>
<path d="M59.0803 26.0118L52.8364 29.7554L51.8011 25.8917L59.0803 26.0118Z" fill="#2A2A2A" stroke="black" stroke-width="2"/>
<path d="M19.4999 56.383L24.7319 51.3208L21.2678 49.3208L19.4999 56.383Z" fill="#2A2A2A" stroke="black" stroke-width="2"/>
<path d="M26.0122 6.9201L25.8921 14.1992L29.7558 13.1639L26.0122 6.9201Z" fill="#2A2A2A" stroke="black" stroke-width="2"/>
<path d="M39.9883 6.9201L40.1084 14.1992L36.2447 13.1639L39.9883 6.9201Z" fill="#2A2A2A" stroke="black" stroke-width="2"/>
<path d="M26.0118 59.0803L29.7554 52.8364L25.8917 51.8011L26.0118 59.0803Z" fill="#2A2A2A" stroke="black" stroke-width="2"/>
<path d="M59.0799 39.9883L51.8008 40.1084L52.8361 36.2447L59.0799 39.9883Z" fill="#2A2A2A" stroke="black" stroke-width="2"/>
<path d="M6.92022 26.0118L13.1641 29.7554L14.1993 25.8917L6.92022 26.0118Z" fill="#2A2A2A" stroke="black" stroke-width="2"/>
<path d="M56.383 19.4999L51.3208 24.7319L49.3208 21.2678L56.383 19.4999Z" fill="#2A2A2A" stroke="black" stroke-width="2"/>
<path d="M9.61751 46.5004L16.6797 44.7324L14.6797 41.2683L9.61751 46.5004Z" fill="#2A2A2A" stroke="black" stroke-width="2"/>
<path d="M46.5001 56.383L41.2681 51.3208L44.7322 49.3208L46.5001 56.383Z" fill="#2A2A2A" stroke="black" stroke-width="2"/>
<path d="M0.999933 32L0.999933 33C0.999933 34.1046 1.89536 35 2.99993 35C4.1045 35 4.99993 34.1046 4.99993 33C4.99993 31.8954 5.8954 31 6.99997 31C8.10454 31 9 31.8954 9 33C9 34.1046 9.89549 35 11.0001 35C12.1046 35 13 34.1046 13 33.0001" stroke="url(#paint7_linear_100_42176)" stroke-width="2"/>
<path d="M65.0001 34L65.0001 33C65.0001 31.8954 64.1046 31 63.0001 31C61.8955 31 61.0001 31.8954 61.0001 33C61.0001 34.1046 60.1046 35 59 35C57.8955 35 57 34.1046 57 33C57 31.8954 56.1045 31 54.9999 31C53.8954 31 53 31.8954 53 32.9999" stroke="url(#paint8_linear_100_42176)" stroke-width="2"/>
<path d="M9.66581 54.9206L10.3729 55.6278C11.154 56.4088 12.4203 56.4088 13.2013 55.6278C13.9824 54.8467 13.9824 53.5804 13.2013 52.7993C12.4203 52.0183 12.4203 50.7519 13.2014 49.9709C13.9824 49.1898 15.2488 49.1898 16.0298 49.9709C16.8109 50.7519 18.0772 50.7519 18.8583 49.9708C19.6393 49.1898 19.6393 47.9235 18.8583 47.1425" stroke="url(#paint9_linear_100_42176)" stroke-width="2"/>
<path d="M56.3352 11.0798L55.6281 10.3727C54.847 9.59168 53.5807 9.59168 52.7996 10.3727C52.0186 11.1538 52.0186 12.4201 52.7996 13.2012C53.5807 13.9822 53.5807 15.2486 52.7996 16.0296C52.0186 16.8107 50.7522 16.8107 49.9712 16.0296C49.1901 15.2486 47.9237 15.2486 47.1427 16.0297C46.3617 16.8107 46.3616 18.077 47.1426 18.858" stroke="url(#paint10_linear_100_42176)" stroke-width="2"/>
<path d="M54.9206 56.3347L55.6278 55.6276C56.4088 54.8465 56.4088 53.5802 55.6278 52.7991C54.8467 52.0181 53.5804 52.0181 52.7993 52.7991C52.0183 53.5802 50.7519 53.5802 49.9709 52.7991C49.1898 52.0181 49.1898 50.7517 49.9709 49.9707C50.7519 49.1896 50.7519 47.9232 49.9708 47.1422C49.1898 46.3612 47.9235 46.3612 47.1425 47.1422" stroke="url(#paint11_linear_100_42176)" stroke-width="2"/>
<path d="M11.0798 9.66532L10.3727 10.3724C9.59169 11.1535 9.59168 12.4198 10.3727 13.2009C11.1538 13.9819 12.4201 13.9819 13.2012 13.2009C13.9822 12.4198 15.2486 12.4198 16.0296 13.2009C16.8107 13.9819 16.8107 15.2483 16.0296 16.0293C15.2486 16.8104 15.2486 18.0768 16.0297 18.8578C16.8107 19.6388 18.077 19.6388 18.858 18.8578" stroke="url(#paint12_linear_100_42176)" stroke-width="2"/>
<rect x="9" y="9" width="48" height="48" rx="24" stroke="#CCCCCC" stroke-width="2"/>
<rect x="48.5562" y="16.0293" width="2" height="4" transform="rotate(45 48.5562 16.0293)" fill="#CCCCCC"/>
<rect x="18.8579" y="45.728" width="2" height="4" transform="rotate(45 18.8579 45.728)" fill="#CCCCCC"/>
<rect x="49.9702" y="48.5562" width="2" height="4" transform="rotate(135 49.9702 48.5562)" fill="#CCCCCC"/>
<rect x="20.272" y="18.8579" width="2" height="4" transform="rotate(135 20.272 18.8579)" fill="#CCCCCC"/>
<rect opacity="0.1" x="1" y="1" width="64" height="64" rx="32" stroke="#E5E5E5" stroke-width="2"/>
<path d="M34 0.999933H33C31.8954 0.999933 31 1.89536 31 2.99993C31 4.1045 31.8954 4.99993 33 4.99993C34.1046 4.99993 35 5.8954 35 6.99997C35 8.10454 34.1046 9 33 9C31.8954 9 31 9.89549 31 11.0001C31 12.1046 31.8954 13 32.9999 13" stroke="url(#paint13_linear_100_42176)" stroke-width="2"/>
<rect x="13" y="13" width="40" height="40" rx="20" fill="#2D2D2D"/>
<rect x="13" y="13" width="40" height="40" rx="20" fill="url(#paint14_linear_100_42176)" fill-opacity="0.44"/>
<rect x="13" y="13" width="40" height="40" rx="20" stroke="black" stroke-width="2"/>
<rect opacity="0.3" x="31" y="46" width="4" height="2" fill="#1D1D1D"/>
<path d="M30 36H32L33 37L34 36H36" stroke="black" stroke-width="2"/>
<path opacity="0.3" d="M26 42L33 43L40 42" stroke="black" stroke-width="2"/>
<path opacity="0.3" d="M31 36L33 38L35 36" stroke="black" stroke-width="2"/>
<path d="M46 41.9249C46 41.9249 42.5777 42.0939 40.4286 41.9249C38.1632 41.7468 34.8571 41 34.8571 41L33 41.9249L31.1429 41C31.1429 41 27.8368 41.7468 25.5714 41.9249C23.4223 42.0939 20 41.9249 20 41.9249" stroke="url(#paint15_linear_100_42176)" stroke-width="2"/>
<rect x="40" y="23" width="2" height="4" fill="black"/>
<rect opacity="0.3" x="40" y="30" width="2" height="5" fill="black"/>
<rect opacity="0.3" x="45" y="39" width="2" height="2" fill="black"/>
<rect opacity="0.3" x="32" y="27" width="2" height="2" fill="black"/>
<rect opacity="0.3" x="19" y="39" width="2" height="2" fill="black"/>
<rect x="24" y="23" width="2" height="4" fill="black"/>
<rect opacity="0.3" x="24" y="30" width="2" height="5" fill="black"/>
<path d="M29 30C29 29.4747 28.8965 28.9546 28.6955 28.4693C28.4945 27.984 28.1999 27.543 27.8284 27.1716C27.457 26.8001 27.016 26.5055 26.5307 26.3045C26.0454 26.1035 25.5253 26 25 26C24.4747 26 23.9546 26.1035 23.4693 26.3045C22.984 26.5055 22.543 26.8001 22.1716 27.1716C21.8001 27.543 21.5055 27.984 21.3045 28.4693C21.1035 28.9546 21 29.4747 21 30" stroke="url(#paint16_linear_100_42176)" stroke-width="2"/>
<path d="M45 30C45 29.4747 44.8965 28.9546 44.6955 28.4693C44.4945 27.984 44.1999 27.543 43.8284 27.1716C43.457 26.8001 43.016 26.5055 42.5307 26.3045C42.0454 26.1035 41.5253 26 41 26C40.4747 26 39.9546 26.1035 39.4693 26.3045C38.984 26.5055 38.543 26.8001 38.1716 27.1716C37.8001 27.543 37.5055 27.984 37.3045 28.4693C37.1035 28.9546 37 29.4747 37 30" stroke="url(#paint17_linear_100_42176)" stroke-width="2"/>
<rect opacity="0.2" x="32" y="29" width="2" height="6" fill="url(#paint18_linear_100_42176)"/>
<path d="M43 30C43 29.7374 42.9483 29.4773 42.8478 29.2346C42.7472 28.992 42.5999 28.7715 42.4142 28.5858C42.2285 28.4001 42.008 28.2528 41.7654 28.1522C41.5227 28.0517 41.2626 28 41 28C40.7374 28 40.4773 28.0517 40.2346 28.1522C39.992 28.2528 39.7715 28.4001 39.5858 28.5858C39.4001 28.7715 39.2528 28.992 39.1522 29.2346C39.0517 29.4773 39 29.7374 39 30" stroke="#4F4F4F" stroke-width="2"/>
<path d="M27 30C27 29.7374 26.9483 29.4773 26.8478 29.2346C26.7472 28.992 26.5999 28.7715 26.4142 28.5858C26.2285 28.4001 26.008 28.2528 25.7654 28.1522C25.5227 28.0517 25.2626 28 25 28C24.7374 28 24.4773 28.0517 24.2346 28.1522C23.992 28.2528 23.7715 28.4001 23.5858 28.5858C23.4001 28.7715 23.2528 28.992 23.1522 29.2346C23.0517 29.4773 23 29.7374 23 30" stroke="#4F4F4F" stroke-width="2"/>
<path d="M32 65.0001H33C34.1046 65.0001 35 64.1046 35 63.0001C35 61.8955 34.1046 61.0001 33 61.0001C31.8954 61.0001 31 60.1046 31 59C31 57.8955 31.8954 57 33 57C34.1046 57 35 56.1045 35 54.9999C35 53.8954 34.1046 53 33.0001 53" stroke="url(#paint19_linear_100_42176)" stroke-width="2"/>
<path d="M9.61751 19.4999L14.6797 24.7319L16.6797 21.2678L9.61751 19.4999Z" fill="#2A2A2A" stroke="black" stroke-width="2"/>
<path d="M56.383 46.4999L49.3208 44.7319L51.3208 41.2678L56.383 46.4999Z" fill="#2A2A2A" stroke="black" stroke-width="2"/>
<path d="M39.9882 59.0803L36.2446 52.8364L40.1083 51.8011L39.9882 59.0803Z" fill="#2A2A2A" stroke="black" stroke-width="2"/>
<path d="M6.9201 39.9883L14.1992 40.1084L13.1639 36.2447L6.9201 39.9883Z" fill="#2A2A2A" stroke="black" stroke-width="2"/>
<path d="M19.5001 9.61702L21.2681 16.6792L24.7322 14.6792L19.5001 9.61702Z" fill="#2A2A2A" stroke="black" stroke-width="2"/>
<path d="M59.0803 26.0118L52.8364 29.7554L51.8011 25.8917L59.0803 26.0118Z" fill="#2A2A2A" stroke="black" stroke-width="2"/>
<path d="M19.4999 56.383L24.7319 51.3208L21.2678 49.3208L19.4999 56.383Z" fill="#2A2A2A" stroke="black" stroke-width="2"/>
<path d="M26.0122 6.9201L25.8921 14.1992L29.7558 13.1639L26.0122 6.9201Z" fill="#2A2A2A" stroke="black" stroke-width="2"/>
<path d="M39.9883 6.9201L40.1084 14.1992L36.2447 13.1639L39.9883 6.9201Z" fill="#2A2A2A" stroke="black" stroke-width="2"/>
<path d="M26.0118 59.0803L29.7554 52.8364L25.8917 51.8011L26.0118 59.0803Z" fill="#2A2A2A" stroke="black" stroke-width="2"/>
<path d="M59.0799 39.9883L51.8008 40.1084L52.8361 36.2447L59.0799 39.9883Z" fill="#2A2A2A" stroke="black" stroke-width="2"/>
<path d="M56.383 19.4999L51.3208 24.7319L49.3208 21.2678L56.383 19.4999Z" fill="#2A2A2A" stroke="black" stroke-width="2"/>
<path d="M9.61751 46.5004L16.6797 44.7324L14.6797 41.2683L9.61751 46.5004Z" fill="#2A2A2A" stroke="black" stroke-width="2"/>
<path d="M0.999933 32L0.999933 33C0.999933 34.1046 1.89536 35 2.99993 35C4.1045 35 4.99993 34.1046 4.99993 33C4.99993 31.8954 5.8954 31 6.99997 31C8.10454 31 9 31.8954 9 33C9 34.1046 9.89549 35 11.0001 35C12.1046 35 13 34.1046 13 33.0001" stroke="url(#paint20_linear_100_42176)" stroke-width="2"/>
<path d="M65.0001 34L65.0001 33C65.0001 31.8954 64.1046 31 63.0001 31C61.8955 31 61.0001 31.8954 61.0001 33C61.0001 34.1046 60.1046 35 59 35C57.8955 35 57 34.1046 57 33C57 31.8954 56.1045 31 54.9999 31C53.8954 31 53 31.8954 53 32.9999" stroke="url(#paint21_linear_100_42176)" stroke-width="2"/>
<path d="M9.66581 54.9206L10.3729 55.6278C11.154 56.4088 12.4203 56.4088 13.2013 55.6278C13.9824 54.8467 13.9824 53.5804 13.2013 52.7993C12.4203 52.0183 12.4203 50.7519 13.2014 49.9709C13.9824 49.1898 15.2488 49.1898 16.0298 49.9709C16.8109 50.7519 18.0772 50.7519 18.8583 49.9708C19.6393 49.1898 19.6393 47.9235 18.8583 47.1425" stroke="url(#paint22_linear_100_42176)" stroke-width="2"/>
<path d="M56.3352 11.0798L55.6281 10.3727C54.847 9.59168 53.5807 9.59168 52.7996 10.3727C52.0186 11.1538 52.0186 12.4201 52.7996 13.2012C53.5807 13.9822 53.5807 15.2486 52.7996 16.0296C52.0186 16.8107 50.7522 16.8107 49.9712 16.0296C49.1901 15.2486 47.9237 15.2486 47.1427 16.0297C46.3617 16.8107 46.3616 18.077 47.1426 18.858" stroke="url(#paint23_linear_100_42176)" stroke-width="2"/>
<path d="M54.9206 56.3347L55.6278 55.6276C56.4088 54.8465 56.4088 53.5802 55.6278 52.7991C54.8467 52.0181 53.5804 52.0181 52.7993 52.7991C52.0183 53.5802 50.7519 53.5802 49.9709 52.7991C49.1898 52.0181 49.1898 50.7517 49.9709 49.9707C50.7519 49.1896 50.7519 47.9232 49.9708 47.1422C49.1898 46.3612 47.9235 46.3612 47.1425 47.1422" stroke="url(#paint24_linear_100_42176)" stroke-width="2"/>
<path d="M11.0798 9.66532L10.3727 10.3724C9.59169 11.1535 9.59168 12.4198 10.3727 13.2009C11.1538 13.9819 12.4201 13.9819 13.2012 13.2009C13.9822 12.4198 15.2486 12.4198 16.0296 13.2009C16.8107 13.9819 16.8107 15.2483 16.0296 16.0293C15.2486 16.8104 15.2486 18.0768 16.0297 18.8578C16.8107 19.6388 18.077 19.6388 18.858 18.8578" stroke="url(#paint25_linear_100_42176)" stroke-width="2"/>
<circle cx="41" cy="30" r="1" fill="white"/>
<circle cx="25" cy="30" r="1" fill="white"/>
<defs>
<linearGradient id="paint0_linear_100_42176" x1="33" y1="2" x2="33" y2="12" gradientUnits="userSpaceOnUse">
<stop stop-color="#E5E5E5"/>
<stop offset="1"/>
</linearGradient>
<linearGradient id="paint1_linear_100_42176" x1="33" y1="13" x2="33" y2="53" gradientUnits="userSpaceOnUse">
<stop stop-opacity="0"/>
<stop offset="1" stop-color="#878787"/>
</linearGradient>
<linearGradient id="paint2_linear_100_42176" x1="20" y1="41.5" x2="46" y2="41.5" gradientUnits="userSpaceOnUse">
<stop stop-opacity="0"/>
<stop offset="0.33"/>
<stop offset="0.66"/>
<stop offset="1" stop-opacity="0"/>
</linearGradient>
<linearGradient id="paint3_linear_100_42176" x1="25" y1="26" x2="25" y2="30" gradientUnits="userSpaceOnUse">
<stop/>
<stop offset="1" stop-opacity="0"/>
</linearGradient>
<linearGradient id="paint4_linear_100_42176" x1="41" y1="26" x2="41" y2="30" gradientUnits="userSpaceOnUse">
<stop/>
<stop offset="1" stop-opacity="0"/>
</linearGradient>
<linearGradient id="paint5_linear_100_42176" x1="33" y1="29" x2="33" y2="35" gradientUnits="userSpaceOnUse">
<stop stop-color="white" stop-opacity="0"/>
<stop offset="1" stop-color="white"/>
</linearGradient>
<linearGradient id="paint6_linear_100_42176" x1="33" y1="64" x2="33" y2="54" gradientUnits="userSpaceOnUse">
<stop stop-color="#E5E5E5"/>
<stop offset="1"/>
</linearGradient>
<linearGradient id="paint7_linear_100_42176" x1="2" y1="33" x2="12" y2="33" gradientUnits="userSpaceOnUse">
<stop stop-color="#E5E5E5"/>
<stop offset="1"/>
</linearGradient>
<linearGradient id="paint8_linear_100_42176" x1="64" y1="33" x2="54" y2="33" gradientUnits="userSpaceOnUse">
<stop stop-color="#E5E5E5"/>
<stop offset="1"/>
</linearGradient>
<linearGradient id="paint9_linear_100_42176" x1="11.0801" y1="54.9206" x2="18.1511" y2="47.8495" gradientUnits="userSpaceOnUse">
<stop stop-color="#E5E5E5"/>
<stop offset="1"/>
</linearGradient>
<linearGradient id="paint10_linear_100_42176" x1="54.9209" y1="11.0799" x2="47.8498" y2="18.151" gradientUnits="userSpaceOnUse">
<stop stop-color="#E5E5E5"/>
<stop offset="1"/>
</linearGradient>
<linearGradient id="paint11_linear_100_42176" x1="54.9206" y1="54.9204" x2="47.8495" y2="47.8493" gradientUnits="userSpaceOnUse">
<stop stop-color="#E5E5E5"/>
<stop offset="1"/>
</linearGradient>
<linearGradient id="paint12_linear_100_42176" x1="11.0799" y1="11.0796" x2="18.151" y2="18.1507" gradientUnits="userSpaceOnUse">
<stop stop-color="#E5E5E5"/>
<stop offset="1"/>
</linearGradient>
<linearGradient id="paint13_linear_100_42176" x1="33" y1="2" x2="33" y2="12" gradientUnits="userSpaceOnUse">
<stop stop-color="#E5E5E5"/>
<stop offset="1"/>
</linearGradient>
<linearGradient id="paint14_linear_100_42176" x1="33" y1="13" x2="33" y2="53" gradientUnits="userSpaceOnUse">
<stop stop-opacity="0"/>
<stop offset="1" stop-color="#878787"/>
</linearGradient>
<linearGradient id="paint15_linear_100_42176" x1="20" y1="41.5" x2="46" y2="41.5" gradientUnits="userSpaceOnUse">
<stop stop-opacity="0"/>
<stop offset="0.33"/>
<stop offset="0.66"/>
<stop offset="1" stop-opacity="0"/>
</linearGradient>
<linearGradient id="paint16_linear_100_42176" x1="25" y1="26" x2="25" y2="30" gradientUnits="userSpaceOnUse">
<stop/>
<stop offset="1" stop-opacity="0"/>
</linearGradient>
<linearGradient id="paint17_linear_100_42176" x1="41" y1="26" x2="41" y2="30" gradientUnits="userSpaceOnUse">
<stop/>
<stop offset="1" stop-opacity="0"/>
</linearGradient>
<linearGradient id="paint18_linear_100_42176" x1="33" y1="29" x2="33" y2="35" gradientUnits="userSpaceOnUse">
<stop stop-color="white" stop-opacity="0"/>
<stop offset="1" stop-color="white"/>
</linearGradient>
<linearGradient id="paint19_linear_100_42176" x1="33" y1="64" x2="33" y2="54" gradientUnits="userSpaceOnUse">
<stop stop-color="#E5E5E5"/>
<stop offset="1"/>
</linearGradient>
<linearGradient id="paint20_linear_100_42176" x1="2" y1="33" x2="12" y2="33" gradientUnits="userSpaceOnUse">
<stop stop-color="#E5E5E5"/>
<stop offset="1"/>
</linearGradient>
<linearGradient id="paint21_linear_100_42176" x1="64" y1="33" x2="54" y2="33" gradientUnits="userSpaceOnUse">
<stop stop-color="#E5E5E5"/>
<stop offset="1"/>
</linearGradient>
<linearGradient id="paint22_linear_100_42176" x1="11.0801" y1="54.9206" x2="18.1511" y2="47.8495" gradientUnits="userSpaceOnUse">
<stop stop-color="#E5E5E5"/>
<stop offset="1"/>
</linearGradient>
<linearGradient id="paint23_linear_100_42176" x1="54.9209" y1="11.0799" x2="47.8498" y2="18.151" gradientUnits="userSpaceOnUse">
<stop stop-color="#E5E5E5"/>
<stop offset="1"/>
</linearGradient>
<linearGradient id="paint24_linear_100_42176" x1="54.9206" y1="54.9204" x2="47.8495" y2="47.8493" gradientUnits="userSpaceOnUse">
<stop stop-color="#E5E5E5"/>
<stop offset="1"/>
</linearGradient>
<linearGradient id="paint25_linear_100_42176" x1="11.0799" y1="11.0796" x2="18.151" y2="18.1507" gradientUnits="userSpaceOnUse">
<stop stop-color="#E5E5E5"/>
<stop offset="1"/>
</linearGradient>
</defs>
</svg>
