<svg width="158" height="72" viewBox="0 0 158 72" fill="none" xmlns="http://www.w3.org/2000/svg">
<path d="M33.9561 0L34.8848 0.507812L35.1943 0L92.3457 0L95.1914 1.55664L96.1406 0L157.861 0L156.146 7.71387C156.146 7.71387 158.599 10.0969 157.861 11.5713C156.146 14.9992 157.861 71.9732 157.861 72H151.945L151.48 69.5391L144.693 72L124.251 72L119.858 69.5391L117.294 72L16.2813 72L7.58105 58.5859L15.6533 72L0 72L0.0566406 68.7832L0.535156 69.0449L1.2666 67.8457L0.0849609 67.2002L0.436523 47.5703L7.58105 58.5859L0.451172 46.7383L1.28711 0L33.9561 0Z" fill="#101010"/>
<path d="M146.636 20.1426L152.285 11.1426L146.636 11.1426V20.1426Z" fill="#EEEEEE"/>
<path d="M139.857 20.1426L145.507 11.1426L139.857 11.1426V20.1426Z" fill="#EEEEEE"/>
<path d="M133.078 20.1426L138.727 11.1426L133.078 11.1426V20.1426Z" fill="#EEEEEE"/>
<path d="M126.299 17.9997L130.818 11.1426H126.299V17.9997Z" fill="#EEEEEE"/>
<path d="M119.521 17.9997L124.04 11.1426H119.521V17.9997Z" fill="#EEEEEE"/>
<path d="M112.741 19.714L117.261 11.1426H112.741V19.714Z" fill="#EEEEEE"/>
<path d="M105.962 20.1426L111.611 11.1426L105.962 11.1426V20.1426Z" fill="#EEEEEE"/>
<path d="M99.1836 17.1426L103.703 11.1426H99.1836V17.1426Z" fill="#EEEEEE"/>
<path d="M92.4043 20.1426L98.0534 11.1426L92.4043 11.1426V20.1426Z" fill="#EEEEEE"/>
<path d="M84.309 18.7109L91.4606 11.2887L86.9805 11.0635L84.309 18.7109Z" fill="#EEEEEE"/>
<path d="M72.0674 20.1426L77.7165 11.1426L72.0674 11.1426V20.1426Z" fill="#EEEEEE"/>
<path d="M77.7168 19.7139L72.0677 28.7139H77.7168V19.7139Z" fill="#EEEEEE"/>
<path d="M91.2744 19.7139L85.6253 28.7139H91.2744V19.7139Z" fill="#EEEEEE"/>
<path d="M98.0537 21.8567L93.5344 28.7139H98.0537V21.8567Z" fill="#EEEEEE"/>
<path d="M104.832 21.8567L100.313 28.7139H104.832V21.8567Z" fill="#EEEEEE"/>
<path d="M111.611 20.1424L107.092 28.7139H111.611V20.1424Z" fill="#EEEEEE"/>
<path d="M118.391 19.7139L112.741 28.7139H118.391V19.7139Z" fill="#EEEEEE"/>
<path d="M125.169 22.7139L120.65 28.7139H125.169V22.7139Z" fill="#EEEEEE"/>
<path d="M131.948 19.7139L126.299 28.7139H131.948V19.7139Z" fill="#EEEEEE"/>
<path d="M140.044 21.1455L132.892 28.5678L137.372 28.793L140.044 21.1455Z" fill="#EEEEEE"/>
<path d="M145.506 20.5713L139.857 29.5713H145.506V20.5713Z" fill="#EEEEEE"/>
<path d="M152.285 19.7139L146.636 28.7139H152.285V19.7139Z" fill="#EEEEEE"/>
<path d="M61.7367 55.5681L61.1734 62.8565L53.1212 64.9016L18.5628 63.7587L13.0793 60.942L13.666 53.3494L-0.000294577 48.5986L12.5317 45.335L13.0598 38.5013L20.6765 36.4278L55.1403 38.7843L62.794 41.9027L62.2298 49.191L72.9248 52.6699L61.7367 55.5681Z" fill="#DBFF00"/>
<path d="M30.6219 5.42069H27.4541L30.6219 2.25586L32.4038 3.44267H34.9776L35.1756 33.113L30.6219 31.9262L30.6219 5.42069Z" fill="#EEEEEE"/>
<path d="M39.5436 15.9697L31.7441 23.8183V26.7615L39.5436 20.6788V30.0971L41.4935 32.2554L44.6133 30.4895L43.4434 28.7236V20.2864L39.5436 15.9697Z" fill="#EEEEEE"/>
<path d="M48.8913 8.341L47.1865 5.57177L56.2785 3.59375L59.688 5.57177V30.9372L61.7716 31.7284L61.0139 33.113H55.5208L55.5208 8.341L48.8913 8.341Z" fill="#EEEEEE"/>
<path d="M47.4986 12.8574L56.2184 12.8574L55.61 17.6329H49.3237V25.7146L50.3376 28.286L56.624 28.6533V33.4289L48.7153 33.0615L45.4707 27.5513V15.0615L47.4986 12.8574Z" fill="#EEEEEE"/>
<path d="M63.9247 2.57466L62.4252 4.91551L65.6389 6.97772L64.379 8.52394L64.0307 31.6087L67.0522 32.7543L68.5243 31.5157L68.9565 7.16066L68.3455 2.48313L63.9247 2.57466Z" fill="#EEEEEE"/>
<path d="M78.1235 5.08069L72.0674 2.86035V28.6718V30.8921L76.4278 33.1124L78.1235 31.7247V5.08069Z" fill="#EEEEEE"/>
<path d="M86.6025 31.3373V6.49023L92.6586 8.26502V31.3373L91.3421 33.1121L86.6025 31.3373Z" fill="#EEEEEE"/>
<path d="M82.2659 4.07031L73.2783 9.71737L76.3678 13.751L83.3893 8.37283L90.6917 10.5241L92.6578 8.37283L82.2659 4.07031Z" fill="#EEEEEE"/>
<path d="M95.2314 14.3185L96.0894 7.71415L124.402 2.57129L153.572 6.857L154.43 11.5128H150.14H148.424H147.566H145.421L143.705 11.5128H141.989L124.831 11.1427L106.814 11.5128L154.43 28.2856V31.1207L149.282 33.4284L116.251 34.7141L95.2314 28.2856V25.2856L126.117 28.7141L135.984 26.9999L95.2314 14.3185Z" fill="#EEEEEE"/>
<path d="M27.7521 12.6487L29.1703 13.4434L27.043 15.0328L23.261 13.4434L18.77 7.08581L11.6788 13.4434L12.6243 24.7679L19.4791 28.5428L27.043 23.6255H28.6976V27.3507L21.1337 33.1123H17.3517L7.18772 24.7679L6.00586 11.854L17.1154 3.1123L19.4791 4.30436L22.3155 4.70171L27.7521 12.6487Z" fill="#EEEEEE"/>
<path d="M75.9725 37.153L72.0674 35.6836V63.9693L73.1324 65.255L75.44 66.5407L77.215 65.255L75.9725 63.9693V37.153Z" fill="#EEEEEE"/>
<path d="M85.7946 37.1294L82.5344 35.6836L81.5049 62.6113V64.2378L84.4219 65.6836L85.7946 64.9607L85.2798 63.3342L85.7946 37.1294Z" fill="#EEEEEE"/>
<path d="M96.9145 36.7347L91.2719 36L90.084 40.2245V65.5714L95.4296 66.8571L97.8055 65.5714L96.9145 64.2857V36.7347Z" fill="#EEEEEE"/>
<path d="M82.6866 36.541L74.6416 44.2085L77.9327 46.8267L85.7949 37.6631L82.6866 36.541Z" fill="#EEEEEE"/>
<path d="M91.1869 36.541L82.3623 44.049L85.12 45.9696L95.2315 37.0648L91.1869 36.541Z" fill="#EEEEEE"/>
<path d="M125.201 40.1881L119.284 38.5713L118.396 44.8587L120.172 47.5533V67.8527L125.201 68.5713L126.976 67.8527V47.5533L125.201 44.8587V40.1881Z" fill="#EEEEEE"/>
<path d="M133.84 37.666L131.494 36.541L120.971 37.666L123.991 41.416L130.739 39.916V42.7285L123.991 46.291V48.541L133.84 44.791V37.666Z" fill="#EEEEEE"/>
<path d="M133.124 64.8659V50.137L122.4 45.9697L121.828 48.6457L129.979 52.13V65.5795L130.408 67.1851L132.552 68.2554L133.839 67.1851L133.124 64.8659Z" fill="#EEEEEE"/>
<path d="M152.866 36.541H141.909L142.431 38.5693H149.387L142.431 40.7141L141.562 60.4284L146.28 66.4284H152.866L150.083 55.2856H152.866V36.541Z" fill="#EEEEEE"/>
<path d="M138.987 46.9841V35.6836L142.617 36.1393V46.9841L143.277 51.5407L143.112 65.9398L142.122 67.3979L138.987 65.9398L139.647 51.5407L138.987 46.9841Z" fill="#EEEEEE"/>
<path d="M44.7849 62.2111L44.6133 41.6396H54.5654L54.9086 46.7825L54.2223 48.0682H49.5894L51.9916 52.3539L51.0479 54.2479L48.3882 52.3539V60.4968L44.7849 62.2111Z" fill="black"/>
<path d="M22.9075 50.8672C22.646 42.8816 29.1321 36.0433 30.0901 36.0246C31.0481 36.006 37.755 43.2271 38.0375 51.8516C38.299 59.8372 31.063 65.7313 31.063 65.7313C31.063 65.7313 23.1832 59.2869 22.9075 50.8672Z" fill="black"/>
<path d="M25.7384 51.3941C25.6656 48.5812 28.5476 46.2248 30.7045 46.169C33.52 46.0962 35.8616 48.3175 35.9344 51.1304C36.0073 53.9433 33.254 56.2964 30.9684 56.3555C28.1529 56.4283 25.8113 54.207 25.7384 51.3941Z" fill="#DBFF00"/>
<path d="M100.861 50.8672C100.599 42.8816 107.085 36.0433 108.043 36.0246C109.001 36.006 115.708 43.2271 115.991 51.8516C116.252 59.8372 109.016 65.7313 109.016 65.7313C109.016 65.7313 101.136 59.2869 100.861 50.8672Z" fill="#EEEEEE"/>
<path d="M103.692 51.3941C103.619 48.5812 106.501 46.2248 108.658 46.169C111.473 46.0962 113.815 48.3175 113.888 51.1304C113.96 53.9433 111.207 56.2964 108.922 56.3555C106.106 56.4283 103.764 54.207 103.692 51.3941Z" fill="#101010"/>
</svg>
