<svg width="86" height="34" viewBox="0 0 86 34" fill="none" xmlns="http://www.w3.org/2000/svg">
<rect width="86" height="34" fill="black"/>
<path d="M10 10H12V8H14V10H16V8H18V10H20V8H22V26H20V12H10V26H8V8H10V10ZM16 26H14V22H16V26Z" fill="white"/>
<path d="M72 20V22H70V26H68V20H72Z" fill="white"/>
<path d="M46 22H42V24H46V26H42V28H40V20H46V22Z" fill="white"/>
<path d="M78 20V22H76V26H74V20H78Z" fill="white"/>
<path d="M66 26H60V20H66V26ZM62 24H64V22H62V24Z" fill="white"/>
<path d="M38 26H30V20H38V26ZM32 24H36V22H32V24Z" fill="white"/>
<path d="M58 26H56V22H54V24H52V22H50V26H48V20H58V26Z" fill="white"/>
<path d="M62 12H68V14H62V16H68V18H60V8H68V10H62V12Z" fill="white"/>
<path d="M38 10H32V16H36V14H34V12H38V18H30V8H38V10Z" fill="white"/>
<path d="M48 8V18H46V14H42V18H40V8H48ZM42 10V12H46V10H42Z" fill="white"/>
<path d="M58 10H55V18H53V10H50V8H58V10Z" fill="white"/>
<path d="M78 8V10H72V12H78V18H70V16H76V14H70V8H78Z" fill="white"/>
</svg>
