<svg width="184" height="56" viewBox="0 0 184 56" fill="none" xmlns="http://www.w3.org/2000/svg">
<path d="M56 0V16H72V8H80V0H88V24H80V16H72V24H48V0H56Z" fill="black"/>
<path d="M0 32H40V40H24V56H16V40H0V32Z" fill="black"/>
<path d="M40 0H8V8H16V24H24V8H32V24H40V8V0Z" fill="black"/>
<rect width="8" height="16" transform="matrix(-1 0 0 1 8 8)" fill="black"/>
<path d="M40 0V24H32V8H24V24H16V8H8V24H0V8H8V0H40Z" fill="black"/>
<path d="M96 56V32H104V48H112V32H120V48H128V32H136V48H128V56H96Z" fill="black"/>
<path d="M88 32V48H80V40H56V48H80V56H48V40H56V32H88Z" fill="black"/>
<path d="M136 0V16H128V8H104V16H128V24H96V8H104V0H136Z" fill="black"/>
<path d="M160 8H152V24H144V0H160V8ZM184 24H168V16H176V0H184V24ZM168 16H160V8H168V16Z" fill="black"/>
<path d="M160 40H152V56H144V32H160V40ZM184 56H168V48H176V32H184V56ZM168 48H160V40H168V48Z" fill="black"/>
</svg>
