<svg width="24" height="24" viewBox="0 0 24 24" fill="none" xmlns="http://www.w3.org/2000/svg">
<path d="M11 2V5H9V8.26953C9.59741 8.61544 10 9.26001 10 10C10 10.7398 9.59718 11.3835 9 11.7295V22H11V15H13V22H15V14.4141L17.9502 17.3643L19.3643 15.9502L15 11.5859V5H14V2H11ZM13 11V13H11V11H13ZM13 7V9H11V7H13Z" fill="black"/>
<path d="M8 6C5.79086 6 4 7.79086 4 10C4 12.2091 5.79086 14 8 14C10.2091 14 12 12.2091 12 10C12 7.79086 10.2091 6 8 6ZM8 8C9.10457 8 10 8.89543 10 10C10 11.1046 9.10457 12 8 12C6.89543 12 6 11.1046 6 10C6 8.89543 6.89543 8 8 8Z" fill="black"/>
</svg>
