<svg width="557" height="138" viewBox="0 0 557 138" fill="none" xmlns="http://www.w3.org/2000/svg">
<path d="M106.839 47.547L111.303 46.107V11.043L106.839 9.60296V6.86696H124.623C128.367 6.86696 131.151 7.70696 132.975 9.38696C134.799 11.067 135.711 13.971 135.711 18.099C135.711 20.787 135.087 22.779 133.839 24.075C132.591 25.371 131.055 26.451 129.231 27.315V27.747C132.063 28.227 134.319 29.355 135.999 31.131C137.727 32.859 138.591 35.067 138.591 37.755C138.591 42.267 137.391 45.483 134.991 47.403C132.639 49.323 129.471 50.283 125.487 50.283H106.839V47.547ZM122.967 26.523C124.983 26.523 126.423 26.043 127.287 25.083C128.199 24.075 128.655 22.107 128.655 19.179C128.655 15.915 128.415 13.587 127.935 12.195C127.503 10.755 126.711 10.107 125.559 10.251L117.999 11.115V26.523H122.967ZM127.503 46.899C128.943 47.043 129.975 46.347 130.599 44.811C131.223 43.227 131.535 40.587 131.535 36.891C131.535 34.971 131.295 33.579 130.815 32.715C130.335 31.803 129.687 31.227 128.871 30.987C128.055 30.747 126.903 30.627 125.415 30.627H117.999V45.891L127.503 46.899ZM155.709 50.931C152.253 50.931 149.661 50.043 147.933 48.267C146.205 46.443 145.341 43.275 145.341 38.763V22.275L142.893 21.195V18.531C146.829 17.811 148.989 17.451 149.373 17.451C149.613 17.451 150.093 17.787 150.813 18.459C151.533 19.131 151.893 19.563 151.893 19.755V38.763C151.893 41.739 152.325 43.635 153.189 44.451C154.053 45.219 155.013 45.603 156.069 45.603C156.549 45.603 158.733 44.691 162.621 42.867V22.275L160.173 21.195V18.531C164.109 17.811 166.293 17.451 166.725 17.451C166.965 17.451 167.421 17.787 168.093 18.459C168.813 19.131 169.173 19.563 169.173 19.755V46.035L171.621 47.115V49.779C167.733 50.547 165.573 50.931 165.141 50.931C164.901 50.931 164.445 50.595 163.773 49.923C163.149 49.251 162.837 48.795 162.837 48.555V45.819C161.493 46.875 160.005 48.003 158.373 49.203C156.741 50.355 155.853 50.931 155.709 50.931ZM181.906 50.931C181.666 50.931 181.114 50.547 180.25 49.779C179.434 49.011 179.026 48.507 179.026 48.267V21.987L176.506 21.195V18.531C180.154 17.811 182.194 17.451 182.626 17.451C182.914 17.451 183.466 17.811 184.282 18.531C185.098 19.251 185.506 19.779 185.506 20.115V46.395L188.026 47.115V49.779C184.378 50.547 182.338 50.931 181.906 50.931ZM178.594 4.13096L184.138 3.77096L185.218 5.35496L184.858 11.619H179.098L178.594 4.13096ZM197.856 50.931C197.616 50.931 197.16 50.595 196.488 49.923C195.816 49.251 195.48 48.795 195.48 48.555V8.59495L192.888 7.58696V4.92296C196.92 4.15496 199.152 3.77096 199.584 3.77096C199.824 3.77096 200.28 4.10696 200.952 4.77896C201.624 5.45096 201.96 5.90696 201.96 6.14696V46.035L204.408 47.115V49.779C200.472 50.547 198.288 50.931 197.856 50.931ZM220.862 50.931C218.942 50.931 217.118 50.379 215.39 49.275C213.71 48.123 212.318 46.419 211.214 44.163C210.158 41.859 209.63 39.027 209.63 35.667C209.63 33.219 209.774 31.011 210.062 29.043C210.398 27.075 210.83 25.563 211.358 24.507C212.126 23.403 213.83 21.939 216.47 20.115C219.158 18.291 220.934 17.379 221.798 17.379C222.566 17.379 224.702 17.643 228.206 18.171V8.59495L225.686 7.58696V4.92296C229.67 4.15496 231.854 3.77096 232.238 3.77096C232.478 3.77096 232.958 4.10696 233.678 4.77896C234.398 5.45096 234.758 5.90696 234.758 6.14696L234.398 19.539V46.107L236.846 47.115V49.779C233.054 50.547 230.942 50.931 230.51 50.931C230.318 50.931 229.862 50.595 229.142 49.923C228.422 49.251 228.062 48.795 228.062 48.555V45.747L225.902 47.403C222.782 49.755 221.102 50.931 220.862 50.931ZM221.294 45.603C221.726 45.603 223.91 44.643 227.846 42.723V22.923C226.502 22.539 224.894 22.203 223.022 21.915C221.15 21.579 219.902 21.459 219.278 21.555C218.366 21.699 217.67 22.731 217.19 24.651C216.758 26.571 216.542 29.931 216.542 34.731C216.542 37.179 216.806 39.219 217.334 40.851C217.91 42.483 218.558 43.683 219.278 44.451C220.046 45.219 220.718 45.603 221.294 45.603ZM263.871 50.931C262.143 50.931 260.487 50.379 258.903 49.275C257.319 48.123 256.023 46.419 255.015 44.163C254.055 41.859 253.575 39.027 253.575 35.667C253.575 33.315 253.719 31.107 254.007 29.043C254.343 26.979 254.775 25.467 255.303 24.507C255.783 23.787 256.743 22.851 258.183 21.699C259.671 20.547 261.159 19.539 262.647 18.675C264.135 17.811 265.167 17.379 265.743 17.379C268.047 17.379 270.687 17.835 273.663 18.747L273.447 27.963H269.055L268.047 22.995C267.471 22.707 266.751 22.443 265.887 22.203C265.023 21.963 264.255 21.843 263.583 21.843C263.151 21.843 262.815 21.939 262.575 22.131C261.903 22.659 261.375 24.075 260.991 26.379C260.655 28.683 260.487 31.467 260.487 34.731C260.487 37.227 260.751 39.291 261.279 40.923C261.855 42.555 262.527 43.755 263.295 44.523C264.063 45.291 264.807 45.675 265.527 45.675H273.663V48.699C271.983 49.227 270.063 49.731 267.903 50.211C265.791 50.691 264.447 50.931 263.871 50.931ZM283.437 50.931C283.197 50.931 282.645 50.547 281.781 49.779C280.965 49.011 280.557 48.507 280.557 48.267V21.987L278.037 21.195V18.531C281.685 17.811 283.725 17.451 284.157 17.451C284.445 17.451 284.997 17.811 285.813 18.531C286.629 19.251 287.037 19.779 287.037 20.115V46.395L289.557 47.115V49.779C285.909 50.547 283.869 50.931 283.437 50.931ZM280.125 4.13096L285.669 3.77096L286.749 5.35496L286.389 11.619H280.629L280.125 4.13096ZM302.268 50.931C301.74 50.931 301.044 50.595 300.18 49.923C299.316 49.203 298.548 48.387 297.876 47.475C297.252 46.563 296.94 45.843 296.94 45.315V21.843L292.332 21.843V19.683L296.94 17.379L300.972 12.483C301.404 12.483 302.244 12.819 303.492 13.491V18.027H310.476V22.203H303.492V42.147C303.492 43.635 303.612 44.643 303.852 45.171C304.092 45.699 304.548 45.963 305.22 45.963L311.124 46.107V49.563C309.732 49.851 308.028 50.139 306.012 50.427C303.996 50.763 302.748 50.931 302.268 50.931ZM319.999 50.931C319.759 50.931 319.207 50.547 318.343 49.779C317.527 49.011 317.119 48.507 317.119 48.267V21.987L314.599 21.195V18.531C318.247 17.811 320.287 17.451 320.719 17.451C321.007 17.451 321.559 17.811 322.375 18.531C323.191 19.251 323.599 19.779 323.599 20.115V46.395L326.119 47.115V49.779C322.471 50.547 320.431 50.931 319.999 50.931ZM316.687 4.13096L322.231 3.77096L323.311 5.35496L322.951 11.619H317.191L316.687 4.13096ZM343.222 50.931C341.158 50.931 339.214 50.379 337.39 49.275C335.566 48.171 334.078 46.467 332.926 44.163C331.822 41.859 331.27 39.027 331.27 35.667C331.27 33.267 331.414 31.059 331.702 29.043C332.038 26.979 332.47 25.467 332.998 24.507C333.478 23.787 334.462 22.827 335.95 21.627C337.486 20.427 339.022 19.371 340.558 18.459C342.142 17.547 343.222 17.091 343.798 17.091C346.39 17.091 348.478 17.499 350.062 18.315C351.694 19.131 352.942 20.691 353.806 22.995C354.718 25.299 355.174 28.611 355.174 32.931L338.182 34.371C338.182 37.251 338.566 39.555 339.334 41.283C340.102 42.963 340.99 44.139 341.998 44.811C343.054 45.483 344.014 45.819 344.878 45.819L348.262 45.675L354.166 45.459V48.411C352.39 48.987 350.278 49.563 347.83 50.139C345.43 50.667 343.894 50.931 343.222 50.931ZM348.19 30.123C348.19 27.243 347.806 25.083 347.038 23.643C346.27 22.155 344.998 21.411 343.222 21.411C342.166 21.411 341.254 21.579 340.486 21.915C339.862 22.203 339.334 23.307 338.902 25.227C338.518 27.147 338.326 29.211 338.326 31.419L348.19 30.123ZM373.554 50.931C372.546 50.931 370.53 50.811 367.506 50.571C364.482 50.379 362.178 50.187 360.594 49.995L360.738 39.627L364.338 39.555L365.85 45.027C366.954 45.411 368.25 45.771 369.738 46.107C371.274 46.395 372.402 46.539 373.122 46.539C373.506 46.539 373.962 46.011 374.49 44.955C375.066 43.899 375.354 42.963 375.354 42.147C375.354 41.283 375.138 40.563 374.706 39.987C374.322 39.363 373.698 38.787 372.834 38.259C371.97 37.683 370.506 36.843 368.442 35.739C365.514 34.155 363.498 32.763 362.394 31.563C361.29 30.363 360.738 28.923 360.738 27.243C360.738 25.611 360.858 24.435 361.098 23.715C361.866 22.515 363.138 21.171 364.914 19.683C366.738 18.195 368.034 17.451 368.802 17.451C370.386 17.451 372.426 17.523 374.922 17.667C377.466 17.763 379.41 17.883 380.754 18.027L380.538 26.811H376.506L376.002 22.995C375.618 22.851 374.37 22.635 372.258 22.347C370.146 22.011 368.826 21.843 368.298 21.843C367.242 21.843 366.714 22.851 366.714 24.867C366.714 25.779 367.05 26.571 367.722 27.243C368.442 27.867 369.234 28.443 370.098 28.971C371.01 29.499 371.61 29.859 371.898 30.051L373.842 31.203C376.434 32.643 378.474 34.011 379.962 35.307C381.498 36.555 382.266 37.995 382.266 39.627C382.266 40.731 382.098 41.955 381.762 43.299C380.994 44.691 379.674 46.323 377.802 48.195C375.978 50.019 374.562 50.931 373.554 50.931Z" fill="#FFAC4F"/>
<g filter="url(#filter0_d_4785_116016)">
<rect x="392.343" y="28.783" width="8" height="8" transform="rotate(-45 392.343 28.783)" fill="#FFAC4F"/>
</g>
<path d="M453.148 49.641L452.697 52.8495L445.853 51.8875C445.33 51.814 443.403 49.4833 440.074 44.8952L438.835 46.4661C437.907 47.2081 436.096 48.02 433.403 48.9018C430.71 49.7836 428.793 50.1444 427.652 49.984C424.23 49.503 421.24 48.1861 418.683 46.0333C416.173 43.8871 415.216 40.6988 415.81 36.4684C416.178 33.8541 417.333 31.4959 419.277 29.3939C421.274 27.2511 423.483 25.5015 425.904 24.1452C423.975 20.9658 423.252 17.665 423.733 14.2426C423.806 13.7198 423.944 13.0848 424.146 12.3376C424.348 11.5904 424.598 11.0197 424.895 10.6253C425.43 9.92486 426.88 8.91691 429.247 7.60141C431.66 6.29258 433.176 5.6816 433.794 5.76844C436.883 6.20266 439.234 7.06622 440.846 8.35911C442.505 9.65868 443.188 11.3542 442.894 13.4456C442.72 14.6815 442.381 16.0637 441.875 17.5922C441.417 19.1274 441.151 19.9867 441.076 20.1701L437.44 19.6591L437.885 13.905C438.052 12.3773 437.496 11.3298 436.218 10.7625C434.988 10.2018 433.423 9.78792 431.522 9.52071C430.999 9.44723 430.497 9.74026 430.017 10.3998C429.543 11.0118 429.236 11.8169 429.095 12.8151C428.895 14.2411 428.942 15.6292 429.237 16.9794C429.58 18.3363 430.248 19.7874 431.243 21.3329C432.946 24.0443 436.307 28.9276 441.326 35.9828C442.856 34.065 444.236 32.1747 445.468 30.312L441.024 28.306L441.404 25.5966L454.452 27.4303L453.991 30.7101L451.192 30.971C449.567 32.8754 447.191 35.8133 444.064 39.7848L450.284 48.2933L453.148 49.641ZM432.398 45.7068C433.138 45.6169 434.787 44.0553 437.346 41.0219L427.763 26.9513C426.381 28.1627 425.254 29.6281 424.382 31.3475C423.558 33.0736 423.019 34.8398 422.765 36.646C422.371 39.4505 422.8 41.5708 424.052 43.0071C425.305 44.4434 427.024 45.3151 429.211 45.6224C430.399 45.7894 431.461 45.8176 432.398 45.7068Z" fill="#FFAC4F"/>
<g filter="url(#filter1_d_4785_116016)">
<rect x="468.223" y="28.783" width="8" height="8" transform="rotate(-45 468.223 28.783)" fill="#FFAC4F"/>
</g>
<g filter="url(#filter2_d_4785_116016)">
<rect x="11" y="89.5" width="8" height="8" transform="rotate(-45 11 89.5)" fill="#FFAC4F"/>
</g>
<path d="M38.5135 115.7L44.7135 113.7V65L38.5135 63V59.2H61.6135V63.5L54.0135 65.5V113L72.1135 114.6L73.7135 101.6H79.1135L79.5135 119.5H38.5135V115.7ZM100.71 120.4C97.8429 120.4 95.1429 119.633 92.6096 118.1C90.0762 116.567 88.0096 114.2 86.4096 111C84.8762 107.8 84.1096 103.867 84.1096 99.2C84.1096 95.8667 84.3096 92.8 84.7096 90C85.1762 87.1333 85.7762 85.0333 86.5096 83.7C87.1762 82.7 88.5429 81.3667 90.6096 79.7C92.7429 78.0333 94.8762 76.5667 97.0096 75.3C99.2096 74.0333 100.71 73.4 101.51 73.4C105.11 73.4 108.01 73.9667 110.21 75.1C112.476 76.2333 114.21 78.4 115.41 81.6C116.676 84.8 117.31 89.4 117.31 95.4L93.7096 97.4C93.7096 101.4 94.2429 104.6 95.3096 107C96.3762 109.333 97.6096 110.967 99.0096 111.9C100.476 112.833 101.81 113.3 103.01 113.3L107.71 113.1L115.91 112.8V116.9C113.443 117.7 110.51 118.5 107.11 119.3C103.776 120.033 101.643 120.4 100.71 120.4ZM107.61 91.5C107.61 87.5 107.076 84.5 106.01 82.5C104.943 80.4333 103.176 79.4 100.71 79.4C99.2429 79.4 97.9762 79.6333 96.9096 80.1C96.0429 80.5 95.3096 82.0333 94.7096 84.7C94.1762 87.3667 93.9096 90.2333 93.9096 93.3L107.61 91.5ZM140.237 120.4C137.504 120.4 134.937 119.633 132.537 118.1C130.204 116.5 128.304 114.067 126.837 110.8C125.37 107.533 124.637 103.467 124.637 98.6C124.637 95.4667 124.837 92.5667 125.237 89.9C125.704 87.1667 126.304 85.1 127.037 83.7C128.104 82.1667 130.47 80.1333 134.137 77.6C137.87 75.0667 140.337 73.8 141.537 73.8C142.87 73.8 148.704 74.5667 159.037 76.1V113.7L162.437 115.1V118.8C157.17 119.867 154.237 120.4 153.637 120.4C153.37 120.4 152.737 119.933 151.737 119C150.737 118.067 150.237 117.433 150.237 117.1V113.2C149.837 113.533 148.17 114.833 145.237 117.1C142.304 119.3 140.637 120.4 140.237 120.4ZM140.837 113C141.57 113 144.604 111.667 149.937 109V81.5C148.27 80.9667 146.104 80.5 143.437 80.1C140.77 79.6333 138.97 79.4667 138.037 79.6C136.77 79.8 135.804 81.2333 135.137 83.9C134.537 86.5667 134.237 91.2333 134.237 97.9C134.237 101.3 134.604 104.133 135.337 106.4C136.137 108.667 137.037 110.333 138.037 111.4C139.104 112.467 140.037 113 140.837 113ZM175.961 120.4C175.628 120.4 174.961 119.933 173.961 119C173.028 118.067 172.561 117.433 172.561 117.1V80.3L169.061 79.1V75.4C174.128 74.4 176.961 73.9 177.561 73.9C177.894 73.9 178.628 74.4333 179.761 75.5C180.961 76.5667 181.561 77.2333 181.561 77.5L181.361 81C186.161 75.9333 188.761 73.4 189.161 73.4C190.228 73.4 192.461 73.9333 195.861 75C196.061 75.4667 196.194 76 196.261 76.6C196.394 77.2 196.461 77.7 196.461 78.1C196.461 78.5 196.061 79.4333 195.261 80.9C194.528 82.3667 194.028 83.1667 193.761 83.3C191.561 82.4333 189.794 82 188.461 82C187.594 82 185.328 83.0667 181.661 85.2V113.2L186.761 114.7V118.8C180.161 119.867 176.561 120.4 175.961 120.4ZM206.918 120.4C206.585 120.4 205.918 119.933 204.918 119C203.985 118.067 203.518 117.433 203.518 117.1V80.6L200.018 79.1V75.4C205.485 74.4 208.518 73.9 209.118 73.9C209.451 73.9 210.051 74.3667 210.918 75.3C211.851 76.1667 212.318 76.7667 212.318 77.1V80.9C214.318 79.4333 216.451 77.9 218.718 76.3C221.051 74.7 222.351 73.9 222.618 73.9C227.418 73.9 231.018 75.1667 233.418 77.7C235.818 80.1667 237.018 84.5 237.018 90.7V113.6L240.518 115.1V118.8C234.985 119.867 231.951 120.4 231.418 120.4C231.085 120.4 230.418 119.933 229.418 119C228.418 118.067 227.918 117.433 227.918 117.1V90.7C227.918 86.5667 227.318 83.9667 226.118 82.9C224.918 81.8333 223.585 81.3 222.118 81.3C221.385 81.3 219.718 81.9 217.118 83.1C214.585 84.2333 213.085 84.9 212.618 85.1V113.6L216.018 115.1V118.8C210.551 119.867 207.518 120.4 206.918 120.4ZM269.699 137.6C269.366 137.6 268.699 137.133 267.699 136.2C266.699 135.267 266.199 134.633 266.199 134.3L266.699 118.2V80.5L263.299 79.1V75.4C264.766 75.0667 266.499 74.7333 268.499 74.4C270.499 74 271.699 73.8 272.099 73.8C272.366 73.8 272.999 74.2667 273.999 75.2C274.999 76.1333 275.499 76.7667 275.499 77.1V81L278.499 78.7C282.833 75.4333 285.166 73.8 285.499 73.8C288.166 73.8 290.666 74.6 292.999 76.2C295.399 77.7333 297.333 80.1 298.799 83.3C300.333 86.4333 301.099 90.3333 301.099 95C301.099 98.4 300.866 101.467 300.399 104.2C299.999 106.933 299.433 109.033 298.699 110.5C297.633 112.033 295.233 114.067 291.499 116.6C287.833 119.133 285.399 120.4 284.199 120.4C283.133 120.4 280.166 120.033 275.299 119.3V130.4L279.299 132V136C277.766 136.333 276.033 136.667 274.099 137C272.166 137.333 270.699 137.533 269.699 137.6ZM287.699 114.6C288.966 114.4 289.899 112.967 290.499 110.3C291.166 107.633 291.499 102.967 291.499 96.3C291.499 92.9 291.099 90.0667 290.299 87.8C289.566 85.5333 288.666 83.8667 287.599 82.8C286.599 81.7333 285.699 81.2 284.899 81.2C284.366 81.2 281.333 82.5333 275.799 85.2V112.7C277.466 113.233 279.633 113.733 282.299 114.2C284.966 114.6 286.766 114.733 287.699 114.6ZM315.119 120.4C314.786 120.4 314.152 119.933 313.219 119C312.286 118.067 311.819 117.433 311.819 117.1V61.6L308.319 60.2V56.5C313.786 55.4333 316.819 54.9 317.419 54.9C317.752 54.9 318.419 55.3667 319.419 56.3C320.419 57.2333 320.919 57.8667 320.919 58.2L320.419 80.8L320.919 80.9C327.186 76.2333 330.519 73.9 330.919 73.9C335.719 73.9 339.319 75.1667 341.719 77.7C344.119 80.1667 345.319 84.5 345.319 90.7V113.6L348.819 115.1V118.8C343.286 119.867 340.219 120.4 339.619 120.4C339.286 120.4 338.619 119.933 337.619 119C336.686 118.067 336.219 117.433 336.219 117.1V90.7C336.219 86.5667 335.619 83.9667 334.419 82.9C333.286 81.8333 331.952 81.3 330.419 81.3C329.752 81.3 326.586 82.5667 320.919 85.1V113.6L324.319 115.1V118.8C318.786 119.867 315.719 120.4 315.119 120.4ZM368.182 137.6C367.916 137.6 367.482 137.033 366.882 135.9C366.282 134.767 365.982 134 365.982 133.6L370.682 119.4C369.349 119.667 368.482 119.8 368.082 119.8C367.882 119.8 367.382 119.533 366.582 119L355.982 80.4L352.082 79.3V75.2C357.149 74.4 359.982 74 360.582 74C360.916 74 361.616 74.4 362.682 75.2C363.816 75.9333 364.449 76.5333 364.582 77L370.382 100.3L372.682 111H373.682L382.082 80.2L376.082 79.5V74.7L387.582 74C387.916 74 388.482 74.4667 389.282 75.4C390.149 76.3333 390.549 77.0333 390.482 77.5L377.182 119.5L374.282 130.9L378.182 132.7V136.4C372.049 137.2 368.716 137.6 368.182 137.6ZM414.81 120.4C413.41 120.4 410.61 120.233 406.41 119.9C402.21 119.633 399.01 119.367 396.81 119.1L397.01 104.7L402.01 104.6L404.11 112.2C405.643 112.733 407.443 113.233 409.51 113.7C411.643 114.1 413.21 114.3 414.21 114.3C414.743 114.3 415.376 113.567 416.11 112.1C416.91 110.633 417.31 109.333 417.31 108.2C417.31 107 417.01 106 416.41 105.2C415.876 104.333 415.01 103.533 413.81 102.8C412.61 102 410.576 100.833 407.71 99.3C403.643 97.1 400.843 95.1667 399.31 93.5C397.776 91.8333 397.01 89.8333 397.01 87.5C397.01 85.2333 397.176 83.6 397.51 82.6C398.576 80.9333 400.343 79.0667 402.81 77C405.343 74.9333 407.143 73.9 408.21 73.9C410.41 73.9 413.243 74 416.71 74.2C420.243 74.3333 422.943 74.5 424.81 74.7L424.51 86.9H418.91L418.21 81.6C417.676 81.4 415.943 81.1 413.01 80.7C410.076 80.2333 408.243 80 407.51 80C406.043 80 405.31 81.4 405.31 84.2C405.31 85.4667 405.776 86.5667 406.71 87.5C407.71 88.3667 408.81 89.1667 410.01 89.9C411.276 90.6333 412.11 91.1333 412.51 91.4L415.21 93C418.81 95 421.643 96.9 423.71 98.7C425.843 100.433 426.91 102.433 426.91 104.7C426.91 106.233 426.676 107.933 426.21 109.8C425.143 111.733 423.31 114 420.71 116.6C418.176 119.133 416.21 120.4 414.81 120.4ZM440.038 120.4C439.704 120.4 438.938 119.867 437.738 118.8C436.604 117.733 436.038 117.033 436.038 116.7V80.2L432.538 79.1V75.4C437.604 74.4 440.438 73.9 441.038 73.9C441.438 73.9 442.204 74.4 443.338 75.4C444.471 76.4 445.038 77.1333 445.038 77.6V114.1L448.538 115.1V118.8C443.471 119.867 440.638 120.4 440.038 120.4ZM435.438 55.4L443.138 54.9L444.638 57.1L444.138 65.8H436.138L435.438 55.4ZM469.992 120.4C467.592 120.4 465.292 119.633 463.092 118.1C460.892 116.5 459.092 114.133 457.692 111C456.358 107.8 455.692 103.867 455.692 99.2C455.692 95.9333 455.892 92.8667 456.292 90C456.758 87.1333 457.358 85.0333 458.092 83.7C458.758 82.7 460.092 81.4 462.092 79.8C464.158 78.2 466.225 76.8 468.292 75.6C470.358 74.4 471.792 73.8 472.592 73.8C475.792 73.8 479.458 74.4333 483.592 75.7L483.292 88.5H477.192L475.792 81.6C474.992 81.2 473.992 80.8333 472.792 80.5C471.592 80.1667 470.525 80 469.592 80C468.992 80 468.525 80.1333 468.192 80.4C467.258 81.1333 466.525 83.1 465.992 86.3C465.525 89.5 465.292 93.3667 465.292 97.9C465.292 101.367 465.658 104.233 466.392 106.5C467.192 108.767 468.125 110.433 469.192 111.5C470.258 112.567 471.292 113.1 472.292 113.1H483.592V117.3C481.258 118.033 478.592 118.733 475.592 119.4C472.658 120.067 470.792 120.4 469.992 120.4ZM508.267 120.4C506.867 120.4 504.067 120.233 499.867 119.9C495.667 119.633 492.467 119.367 490.267 119.1L490.467 104.7L495.467 104.6L497.567 112.2C499.1 112.733 500.9 113.233 502.967 113.7C505.1 114.1 506.667 114.3 507.667 114.3C508.2 114.3 508.833 113.567 509.567 112.1C510.367 110.633 510.767 109.333 510.767 108.2C510.767 107 510.467 106 509.867 105.2C509.333 104.333 508.467 103.533 507.267 102.8C506.067 102 504.033 100.833 501.167 99.3C497.1 97.1 494.3 95.1667 492.767 93.5C491.233 91.8333 490.467 89.8333 490.467 87.5C490.467 85.2333 490.633 83.6 490.967 82.6C492.033 80.9333 493.8 79.0667 496.267 77C498.8 74.9333 500.6 73.9 501.667 73.9C503.867 73.9 506.7 74 510.167 74.2C513.7 74.3333 516.4 74.5 518.267 74.7L517.967 86.9H512.367L511.667 81.6C511.133 81.4 509.4 81.1 506.467 80.7C503.533 80.2333 501.7 80 500.967 80C499.5 80 498.767 81.4 498.767 84.2C498.767 85.4667 499.233 86.5667 500.167 87.5C501.167 88.3667 502.267 89.1667 503.467 89.9C504.733 90.6333 505.567 91.1333 505.967 91.4L508.667 93C512.267 95 515.1 96.9 517.167 98.7C519.3 100.433 520.367 102.433 520.367 104.7C520.367 106.233 520.133 107.933 519.667 109.8C518.6 111.733 516.767 114 514.167 116.6C511.633 119.133 509.667 120.4 508.267 120.4Z" fill="#FFAC4F"/>
<g filter="url(#filter3_d_4785_116016)">
<rect x="535.313" y="89.5" width="8" height="8" transform="rotate(-45 535.313 89.5)" fill="#FFAC4F"/>
</g>
<defs>
<filter id="filter0_d_4785_116016" x="382.243" y="13.0261" width="31.5135" height="31.5137" filterUnits="userSpaceOnUse" color-interpolation-filters="sRGB">
<feFlood flood-opacity="0" result="BackgroundImageFix"/>
<feColorMatrix in="SourceAlpha" type="matrix" values="0 0 0 0 0 0 0 0 0 0 0 0 0 0 0 0 0 0 127 0" result="hardAlpha"/>
<feOffset/>
<feGaussianBlur stdDeviation="5.05"/>
<feComposite in2="hardAlpha" operator="out"/>
<feColorMatrix type="matrix" values="0 0 0 0 1 0 0 0 0 0.75 0 0 0 0 0 0 0 0 0.4 0"/>
<feBlend mode="normal" in2="BackgroundImageFix" result="effect1_dropShadow_4785_116016"/>
<feBlend mode="normal" in="SourceGraphic" in2="effect1_dropShadow_4785_116016" result="shape"/>
</filter>
<filter id="filter1_d_4785_116016" x="458.123" y="13.0261" width="31.5135" height="31.5137" filterUnits="userSpaceOnUse" color-interpolation-filters="sRGB">
<feFlood flood-opacity="0" result="BackgroundImageFix"/>
<feColorMatrix in="SourceAlpha" type="matrix" values="0 0 0 0 0 0 0 0 0 0 0 0 0 0 0 0 0 0 127 0" result="hardAlpha"/>
<feOffset/>
<feGaussianBlur stdDeviation="5.05"/>
<feComposite in2="hardAlpha" operator="out"/>
<feColorMatrix type="matrix" values="0 0 0 0 1 0 0 0 0 0.75 0 0 0 0 0 0 0 0 0.4 0"/>
<feBlend mode="normal" in2="BackgroundImageFix" result="effect1_dropShadow_4785_116016"/>
<feBlend mode="normal" in="SourceGraphic" in2="effect1_dropShadow_4785_116016" result="shape"/>
</filter>
<filter id="filter2_d_4785_116016" x="0.9" y="73.7431" width="31.5135" height="31.5137" filterUnits="userSpaceOnUse" color-interpolation-filters="sRGB">
<feFlood flood-opacity="0" result="BackgroundImageFix"/>
<feColorMatrix in="SourceAlpha" type="matrix" values="0 0 0 0 0 0 0 0 0 0 0 0 0 0 0 0 0 0 127 0" result="hardAlpha"/>
<feOffset/>
<feGaussianBlur stdDeviation="5.05"/>
<feComposite in2="hardAlpha" operator="out"/>
<feColorMatrix type="matrix" values="0 0 0 0 1 0 0 0 0 0.75 0 0 0 0 0 0 0 0 0.4 0"/>
<feBlend mode="normal" in2="BackgroundImageFix" result="effect1_dropShadow_4785_116016"/>
<feBlend mode="normal" in="SourceGraphic" in2="effect1_dropShadow_4785_116016" result="shape"/>
</filter>
<filter id="filter3_d_4785_116016" x="525.213" y="73.7431" width="31.5135" height="31.5137" filterUnits="userSpaceOnUse" color-interpolation-filters="sRGB">
<feFlood flood-opacity="0" result="BackgroundImageFix"/>
<feColorMatrix in="SourceAlpha" type="matrix" values="0 0 0 0 0 0 0 0 0 0 0 0 0 0 0 0 0 0 127 0" result="hardAlpha"/>
<feOffset/>
<feGaussianBlur stdDeviation="5.05"/>
<feComposite in2="hardAlpha" operator="out"/>
<feColorMatrix type="matrix" values="0 0 0 0 1 0 0 0 0 0.75 0 0 0 0 0 0 0 0 0.4 0"/>
<feBlend mode="normal" in2="BackgroundImageFix" result="effect1_dropShadow_4785_116016"/>
<feBlend mode="normal" in="SourceGraphic" in2="effect1_dropShadow_4785_116016" result="shape"/>
</filter>
</defs>
</svg>
