<svg width="25" height="24" viewBox="0 0 25 24" fill="none" xmlns="http://www.w3.org/2000/svg">
<rect x="9.5" y="12" width="2" height="2" fill="white"/>
<rect x="13.5" y="12" width="2" height="2" fill="white"/>
<path d="M17.8662 9.48535L17.4715 10.4041L17.9632 10.6154L18.4118 10.3234L17.8662 9.48535ZM21.4541 14.2725L20.8018 13.5145L20.3973 13.8627L20.4613 14.3925L21.4541 14.2725ZM15.5 21L15.5 22H15.5L15.5 21ZM3.54492 14.2725L4.53769 14.3925L4.60173 13.8628L4.19745 13.5147L3.54492 14.2725ZM7.13281 9.48535L6.58744 10.3235L7.03602 10.6154L7.5277 10.4041L7.13281 9.48535ZM9.5 9L9.5 8H9.5L9.5 9ZM15.5 9V10C16.2016 10 16.8673 10.1445 17.4715 10.4041L17.8662 9.48535L18.261 8.56656C17.413 8.20224 16.4791 8 15.5 8V9ZM17.8662 9.48535L18.4118 10.3234C18.7262 10.1187 19.0983 10 19.5 10V9V8C18.6957 8 17.9467 8.23968 17.3206 8.64731L17.8662 9.48535ZM19.5 9V10C20.6046 10 21.5 10.8954 21.5 12H22.5H23.5C23.5 9.79086 21.7091 8 19.5 8V9ZM22.5 12H21.5C21.5 12.6039 21.2315 13.1447 20.8018 13.5145L21.4541 14.2725L22.1064 15.0304C22.9552 14.2999 23.5 13.2152 23.5 12H22.5ZM21.4541 14.2725L20.4613 14.3925C20.4861 14.5976 20.5 14.7997 20.5 15H21.5H22.5C22.5 14.7076 22.4798 14.4244 22.4469 14.1524L21.4541 14.2725ZM21.5 15H20.5C20.5 17.7614 18.2614 20 15.5 20L15.5 21L15.5 22C19.366 22 22.5 18.866 22.5 15H21.5ZM15.5 21V20H9.5V21V22H15.5V21ZM9.5 21V20C6.73858 20 4.5 17.7614 4.5 15H3.5H2.5C2.5 18.866 5.63401 22 9.5 22V21ZM3.5 15H4.5C4.5 14.7973 4.51324 14.5948 4.53769 14.3925L3.54492 14.2725L2.55215 14.1524C2.51893 14.4272 2.5 14.7101 2.5 15H3.5ZM3.54492 14.2725L4.19745 13.5147C3.76835 13.1452 3.5 12.6042 3.5 12H2.5H1.5C1.5 13.2144 2.04371 14.2994 2.8924 15.0302L3.54492 14.2725ZM2.5 12H3.5C3.5 10.8954 4.39543 10 5.5 10V9V8C3.29086 8 1.5 9.79086 1.5 12H2.5ZM5.5 9V10C5.90085 10 6.27261 10.1187 6.58744 10.3235L7.13281 9.48535L7.67819 8.64716C7.05279 8.24024 6.30449 8 5.5 8V9ZM7.13281 9.48535L7.5277 10.4041C8.13179 10.1444 8.79782 10 9.5 10L9.5 9L9.5 8C8.5208 8 7.58644 8.20191 6.73792 8.56662L7.13281 9.48535ZM9.5 9V10H15.5V9V8H9.5V9Z" fill="white"/>
<path d="M15.5 17H9.5" stroke="white" stroke-width="2"/>
<rect x="16.5" y="2" width="4" height="4" rx="2" stroke="white" stroke-width="2"/>
<path d="M12.5 9V4H16.5" stroke="white" stroke-width="2"/>
</svg>
