<svg width="24" height="24" viewBox="0 0 24 24" fill="none" xmlns="http://www.w3.org/2000/svg">
<rect x="9" y="12" width="2" height="2" fill="#003CFF"/>
<rect x="13" y="12" width="2" height="2" fill="#003CFF"/>
<path d="M17.3662 9.48535L16.9715 10.4041L17.4632 10.6154L17.9118 10.3234L17.3662 9.48535ZM20.9541 14.2725L20.3018 13.5145L19.8973 13.8627L19.9613 14.3925L20.9541 14.2725ZM15 21L15 22H15L15 21ZM3.04492 14.2725L4.03769 14.3925L4.10173 13.8628L3.69745 13.5147L3.04492 14.2725ZM6.63281 9.48535L6.08744 10.3235L6.53602 10.6154L7.0277 10.4041L6.63281 9.48535ZM9 9L9 8H9L9 9ZM15 9V10C15.7016 10 16.3673 10.1445 16.9715 10.4041L17.3662 9.48535L17.761 8.56656C16.913 8.20224 15.9791 8 15 8V9ZM17.3662 9.48535L17.9118 10.3234C18.2262 10.1187 18.5983 10 19 10V9V8C18.1957 8 17.4467 8.23968 16.8206 8.64731L17.3662 9.48535ZM19 9V10C20.1046 10 21 10.8954 21 12H22H23C23 9.79086 21.2091 8 19 8V9ZM22 12H21C21 12.6039 20.7315 13.1447 20.3018 13.5145L20.9541 14.2725L21.6064 15.0304C22.4552 14.2999 23 13.2152 23 12H22ZM20.9541 14.2725L19.9613 14.3925C19.9861 14.5976 20 14.7997 20 15H21H22C22 14.7076 21.9798 14.4244 21.9469 14.1524L20.9541 14.2725ZM21 15H20C20 17.7614 17.7614 20 15 20L15 21L15 22C18.866 22 22 18.866 22 15H21ZM15 21V20H9V21V22H15V21ZM9 21V20C6.23858 20 4 17.7614 4 15H3H2C2 18.866 5.13401 22 9 22V21ZM3 15H4C4 14.7973 4.01324 14.5948 4.03769 14.3925L3.04492 14.2725L2.05215 14.1524C2.01893 14.4272 2 14.7101 2 15H3ZM3.04492 14.2725L3.69745 13.5147C3.26835 13.1452 3 12.6042 3 12H2H1C1 13.2144 1.54371 14.2994 2.3924 15.0302L3.04492 14.2725ZM2 12H3C3 10.8954 3.89543 10 5 10V9V8C2.79086 8 1 9.79086 1 12H2ZM5 9V10C5.40085 10 5.77261 10.1187 6.08744 10.3235L6.63281 9.48535L7.17819 8.64716C6.55279 8.24024 5.80449 8 5 8V9ZM6.63281 9.48535L7.0277 10.4041C7.63179 10.1444 8.29782 10 9 10L9 9L9 8C8.0208 8 7.08644 8.20191 6.23792 8.56662L6.63281 9.48535ZM9 9V10H15V9V8H9V9Z" fill="#003CFF"/>
<path d="M15 17H9" stroke="#003CFF" stroke-width="2"/>
<rect x="16" y="2" width="4" height="4" rx="2" stroke="#003CFF" stroke-width="2"/>
<path d="M12 9V4H16" stroke="#003CFF" stroke-width="2"/>
</svg>
