<svg width="78" height="140" viewBox="0 0 78 140" fill="none" xmlns="http://www.w3.org/2000/svg">
<path d="M0 0H19.5H34C58.3005 0 78 19.6995 78 44V105V140H0V0Z" fill="#FFF176"/>
<path d="M53.4004 30.9453L57.7197 57.418L34.2002 62V46.2178L15 62V38.582L27 30.9453L15.96 11.0908L34.2002 22.291V6L46.6797 19.2363L63 6L53.4004 30.9453ZM39 32C35.1425 32 32.0139 34.9868 32 35C32.02 35.0191 35.1464 38 39 38C42.8537 37.9999 45.9801 35.019 46 35C45.9921 34.9925 42.8612 32 39 32ZM39 33C40.1046 33 41 33.8954 41 35C41 36.1046 40.1046 37 39 37C37.8954 37 37 36.1046 37 35C37 33.8954 37.8954 33 39 33Z" fill="black"/>
<path d="M36 122H12V128H36V134H6V116H36V122ZM48 122H66V116H72V134H66V128H48V134H42V116H48V122ZM12 98H18V92H24V98H30V92H36V110H30V104H24V110H18V104H12V110H6V92H12V98ZM72 110H66V98H48V110H42V92H72V110ZM60 110H54V104H60V110ZM36 86H6V68H36V86ZM72 74H66V80H60V74H48V86H42V68H72V74ZM72 86H66V80H72V86ZM12 80H30V74H12V80Z" fill="black"/>
</svg>
