<svg width="132" height="78" viewBox="0 0 132 78" fill="none" xmlns="http://www.w3.org/2000/svg">
<path d="M36 60H12V66H36V72H6V54H36V60ZM48 60H66V54H72V72H66V66H48V72H42V54H48V60ZM12 36H18V30H24V36H30V30H36V48H30V42H24V48H18V42H12V48H6V30H12V36ZM72 48H66V36H48V48H42V30H72V48ZM60 48H54V42H60V48ZM36 24H6V6H36V24ZM72 12H66V18H60V12H48V24H42V6H72V12ZM72 24H66V18H72V24ZM12 18H30V12H12V18Z" fill="black"/>
<path d="M116.4 35.9453L120.72 62.418L97.2002 67V51.2178L78 67V43.582L90 35.9453L78.96 16.0908L97.2002 27.291V11L109.68 24.2363L126 11L116.4 35.9453ZM102 37C98.1425 37 95.0139 39.9868 95 40C95.02 40.0191 98.1464 43 102 43C105.854 42.9999 108.98 40.019 109 40C108.992 39.9925 105.861 37 102 37ZM102 38C103.105 38 104 38.8954 104 40C104 41.1046 103.105 42 102 42C100.895 42 100 41.1046 100 40C100 38.8954 100.895 38 102 38Z" fill="black"/>
</svg>
