<svg width="105" height="12" viewBox="0 0 105 12" fill="none" xmlns="http://www.w3.org/2000/svg">
<rect y="3" width="3" height="9" fill="black"/>
<rect x="12" y="3" width="3" height="9" fill="black"/>
<rect width="15" height="3" fill="black"/>
<rect y="9" width="15" height="3" fill="black"/>
<path fill-rule="evenodd" clip-rule="evenodd" d="M33 12H30V9H33V12ZM33 6L30 6V3L21 3V6L30 6V9L21 9V12H18L18 0L33 0V6Z" fill="black"/>
<path fill-rule="evenodd" clip-rule="evenodd" d="M75 9L87 9V12L72 12V0L87 0V3L75 3V9Z" fill="black"/>
<path fill-rule="evenodd" clip-rule="evenodd" d="M39 3L42 3V0L45 0V3L48 3V0L51 0V12H48V6H45V12H42V6H39V12H36V0L39 0V3Z" fill="black"/>
<path fill-rule="evenodd" clip-rule="evenodd" d="M66 3L57 3V6L66 6V3L69 3V12H66V9L57 9V12H54V0L66 0V3Z" fill="black"/>
<path d="M90 6L105 6V9L90 9V6Z" fill="black"/>
<path d="M90 0L93 0V12H90V0Z" fill="black"/>
<path d="M102 0L105 0V12H102V0Z" fill="black"/>
</svg>
