<svg width="312" height="48" viewBox="0 0 312 48" fill="none" xmlns="http://www.w3.org/2000/svg">
<rect width="12" height="48" fill="#BABABA"/>
<rect x="36" width="12" height="48" fill="#BABABA"/>
<rect x="12" width="24" height="12" fill="#BABABA"/>
<rect x="12" y="36" width="24" height="12" fill="#BABABA"/>
<rect x="120" y="12" width="36" height="12" fill="#BABABA"/>
<rect x="60" width="12" height="48" fill="#BABABA"/>
<rect x="108" width="12" height="48" fill="#BABABA"/>
<rect x="156" width="12" height="48" fill="#BABABA"/>
<rect x="132" width="12" height="48" fill="#BABABA"/>
<rect x="180" width="12" height="48" fill="#BABABA"/>
<rect x="204" width="12" height="48" fill="#BABABA"/>
<rect x="228" width="12" height="48" fill="#BABABA"/>
<rect x="240" width="24" height="12" fill="#BABABA"/>
<rect x="72" y="12" width="24" height="12" fill="#BABABA"/>
<rect x="84" width="12" height="12" fill="#BABABA"/>
<rect x="240" y="36" width="24" height="12" fill="#BABABA"/>
<rect x="288" y="12" width="24" height="12" fill="#BABABA"/>
<rect x="192" y="24" width="24" height="12" fill="#BABABA"/>
<rect x="192" width="24" height="12" fill="#BABABA"/>
<rect x="276" width="12" height="48" fill="#BABABA"/>
<rect x="300" width="12" height="48" fill="#BABABA"/>
</svg>
